<svg width="1668" height="97" viewBox="0 0 1668 97" fill="none" xmlns="http://www.w3.org/2000/svg">
<path d="M1576 41H1570L1626 97H1668V93H1628L1576 41Z" fill="#BED9E4"/>
<path d="M1576 41H1305L1317 53H1588L1576 41Z" fill="#BED9E4"/>
<path d="M1320.5 41H1161.5L1165.5 45H1320.5V41Z" fill="#BED9E4"/>
<path d="M1573 61H1557L1585 89H1601L1573 61Z" fill="#BED9E4"/>
<path d="M1544 61H1528L1556 89H1572L1544 61Z" fill="#BED9E4"/>
<path d="M1515 61H1499L1527 89H1543L1515 61Z" fill="#BED9E4"/>
<path d="M1486.5 61H1470.5L1498.5 89H1514.5L1486.5 61Z" fill="#BED9E4"/>
<path d="M1624 41H1593L1637 85H1668V77H1660L1624 41Z" fill="#BED9E4"/>
<path d="M1189.5 57H1267.5L1271.5 61H1193.5L1189.5 57Z" fill="#BED9E4"/>
<rect width="1200" height="2" transform="matrix(-1 0 0 1 1200 57)" fill="#BED9E4"/>
</svg>
