<svg width="1671" height="97" viewBox="0 0 1671 97" fill="none" xmlns="http://www.w3.org/2000/svg">
<path d="M92 41H98L42 97H0V93H40L92 41Z" fill="#BED9E4"/>
<path d="M92 41H363L351 53H80L92 41Z" fill="#BED9E4"/>
<path d="M347.5 41H506.5L502.5 45H347.5V41Z" fill="#BED9E4"/>
<path d="M95 61H111L83 89H67L95 61Z" fill="#BED9E4"/>
<path d="M124 61H140L112 89H96L124 61Z" fill="#BED9E4"/>
<path d="M153 61H169L141 89H125L153 61Z" fill="#BED9E4"/>
<path d="M181.5 61H197.5L169.5 89H153.5L181.5 61Z" fill="#BED9E4"/>
<path d="M44 41H75L31 85H0V77H8L44 41Z" fill="#BED9E4"/>
<path d="M481.5 57H403.5L399.5 61H477.5L481.5 57Z" fill="#BED9E4"/>
<rect x="471" y="57" width="1200" height="2" fill="#BED9E4"/>
</svg>
