<svg width="395" height="80" viewBox="0 0 395 80" fill="none" xmlns="http://www.w3.org/2000/svg">
<mask id="path-1-outside-1_0_1" maskUnits="userSpaceOnUse" x="0" y="0.851562" width="395" height="80" fill="black">
<rect fill="white" y="0.851562" width="395" height="80"/>
<path d="M39.5293 2.85156C45.4254 2.85167 50.0385 4.81377 52.876 8.46191C54.2775 10.264 55.2273 12.4538 55.6934 14.9766L57.7061 3.56055H68.6982L68.918 4L78.9531 24.0742L82.5703 3.56055H93.8828L87.1055 42H92.3193L99.0967 3.56055H110.938L105.637 33.625H122.148L120.672 42H126.069L132.847 3.56055H144.688L137.91 42H143.132L149.909 3.56055H160.901L161.121 4L171.156 24.0742L174.773 3.56055H186.086L179.309 42H184.522L191.3 3.56055H220.804L219.015 13.708H201.352L200.549 18.2617H216.196L214.465 28.0781H198.817L197.84 33.625H215.936L214.459 42H342L306 78H2V42H22.2744C20.9402 41.1629 19.7871 40.1263 18.835 38.8994C16.0045 35.252 15.0173 30.0282 16.1348 23.6904C17.2564 17.3294 20.086 12.1043 24.2031 8.46191C28.3272 4.81361 33.633 2.85163 39.5293 2.85156ZM330 78H318L354 42H366L330 78ZM354 78H342L378 42H390L354 78ZM40.7412 42H40.7461C40.7494 41.9987 40.7526 41.9974 40.7559 41.9961C40.9071 41.9364 41.0576 41.8755 41.207 41.8125L41.2061 41.8115C41.0522 41.8764 40.897 41.9385 40.7412 42ZM52.624 32.3828C51.2687 34.9035 49.5469 37.0946 47.5098 38.8994C46.125 40.1262 44.6066 41.1629 42.9775 42H50.9287L52.624 32.3828ZM62.2412 42H74.9639L65.5615 23.167L62.2412 42ZM154.444 42H167.167L157.765 23.167L154.444 42ZM37.6816 13.3291C35.3681 13.3292 33.4001 14.2331 31.8438 15.9092C30.2541 17.6212 29.0181 20.2258 28.4072 23.6904C27.8052 27.1051 28.1235 29.6987 29.1104 31.4121C30.0773 33.0908 31.7271 34.0029 34.0371 34.0029C36.3767 34.0027 38.3423 33.0973 39.8896 31.4297C41.4716 29.7246 42.6956 27.1331 43.3027 23.6904C43.9098 20.2477 43.6033 17.6418 42.623 15.9238C41.6641 14.2432 40.0173 13.3292 37.6816 13.3291ZM79.3789 27.3281L79.3799 27.3301L83.3975 4.54492H83.3965L79.3789 27.3281ZM171.582 27.3281L171.583 27.3301L175.601 4.54492H175.6L171.582 27.3281ZM39.0137 12.4209C38.9467 12.4121 38.8796 12.4008 38.8115 12.3936L38.7969 12.3926C38.8699 12.4002 38.9419 12.4115 39.0137 12.4209Z"/>
</mask>
<path d="M39.5293 2.85156C45.4254 2.85167 50.0385 4.81377 52.876 8.46191C54.2775 10.264 55.2273 12.4538 55.6934 14.9766L57.7061 3.56055H68.6982L68.918 4L78.9531 24.0742L82.5703 3.56055H93.8828L87.1055 42H92.3193L99.0967 3.56055H110.938L105.637 33.625H122.148L120.672 42H126.069L132.847 3.56055H144.688L137.91 42H143.132L149.909 3.56055H160.901L161.121 4L171.156 24.0742L174.773 3.56055H186.086L179.309 42H184.522L191.3 3.56055H220.804L219.015 13.708H201.352L200.549 18.2617H216.196L214.465 28.0781H198.817L197.84 33.625H215.936L214.459 42H342L306 78H2V42H22.2744C20.9402 41.1629 19.7871 40.1263 18.835 38.8994C16.0045 35.252 15.0173 30.0282 16.1348 23.6904C17.2564 17.3294 20.086 12.1043 24.2031 8.46191C28.3272 4.81361 33.633 2.85163 39.5293 2.85156ZM330 78H318L354 42H366L330 78ZM354 78H342L378 42H390L354 78ZM40.7412 42H40.7461C40.7494 41.9987 40.7526 41.9974 40.7559 41.9961C40.9071 41.9364 41.0576 41.8755 41.207 41.8125L41.2061 41.8115C41.0522 41.8764 40.897 41.9385 40.7412 42ZM52.624 32.3828C51.2687 34.9035 49.5469 37.0946 47.5098 38.8994C46.125 40.1262 44.6066 41.1629 42.9775 42H50.9287L52.624 32.3828ZM62.2412 42H74.9639L65.5615 23.167L62.2412 42ZM154.444 42H167.167L157.765 23.167L154.444 42ZM37.6816 13.3291C35.3681 13.3292 33.4001 14.2331 31.8438 15.9092C30.2541 17.6212 29.0181 20.2258 28.4072 23.6904C27.8052 27.1051 28.1235 29.6987 29.1104 31.4121C30.0773 33.0908 31.7271 34.0029 34.0371 34.0029C36.3767 34.0027 38.3423 33.0973 39.8896 31.4297C41.4716 29.7246 42.6956 27.1331 43.3027 23.6904C43.9098 20.2477 43.6033 17.6418 42.623 15.9238C41.6641 14.2432 40.0173 13.3292 37.6816 13.3291ZM79.3789 27.3281L79.3799 27.3301L83.3975 4.54492H83.3965L79.3789 27.3281ZM171.582 27.3281L171.583 27.3301L175.601 4.54492H175.6L171.582 27.3281ZM39.0137 12.4209C38.9467 12.4121 38.8796 12.4008 38.8115 12.3936L38.7969 12.3926C38.8699 12.4002 38.9419 12.4115 39.0137 12.4209Z" fill="#EB6100"/>
<path d="M39.5293 2.85156L39.5293 0.851562L39.5293 0.851563L39.5293 2.85156ZM52.876 8.46191L54.4547 7.23409L54.4547 7.23403L52.876 8.46191ZM55.6934 14.9766L53.7266 15.3399L57.663 15.3238L55.6934 14.9766ZM57.7061 3.56055V1.56055H56.0278L55.7364 3.21329L57.7061 3.56055ZM68.6982 3.56055L70.4871 2.66612L69.9343 1.56055H68.6982V3.56055ZM68.918 4L70.7069 3.10571L70.7068 3.10557L68.918 4ZM78.9531 24.0742L77.1642 24.9685L79.8714 30.3839L80.9227 24.4215L78.9531 24.0742ZM82.5703 3.56055V1.56055H80.8921L80.6007 3.21324L82.5703 3.56055ZM93.8828 3.56055L95.8524 3.90781L96.2663 1.56055H93.8828V3.56055ZM87.1055 42L85.1358 41.6527L84.722 44H87.1055V42ZM92.3193 42V44H93.9976L94.289 42.3473L92.3193 42ZM99.0967 3.56055V1.56055H97.4185L97.1271 3.21328L99.0967 3.56055ZM110.938 3.56055L112.907 3.90782L113.321 1.56055H110.938V3.56055ZM105.637 33.625L103.667 33.2777L103.253 35.625H105.637V33.625ZM122.148 33.625L124.118 33.9723L124.532 31.625H122.148V33.625ZM120.672 42L118.702 41.6527L118.288 44H120.672V42ZM126.069 42V44H127.748L128.039 42.3473L126.069 42ZM132.847 3.56055V1.56055H131.168L130.877 3.21328L132.847 3.56055ZM144.688 3.56055L146.657 3.90781L147.071 1.56055H144.688V3.56055ZM137.91 42L135.941 41.6527L135.527 44H137.91V42ZM143.132 42V44H144.81L145.101 42.3473L143.132 42ZM149.909 3.56055V1.56055H148.231L147.94 3.21328L149.909 3.56055ZM160.901 3.56055L162.69 2.66612L162.137 1.56055H160.901V3.56055ZM161.121 4L162.91 3.10571L162.91 3.10557L161.121 4ZM171.156 24.0742L169.367 24.9685L172.075 30.3839L173.126 24.4215L171.156 24.0742ZM174.773 3.56055V1.56055H173.095L172.804 3.21324L174.773 3.56055ZM186.086 3.56055L188.056 3.90781L188.469 1.56055H186.086V3.56055ZM179.309 42L177.339 41.6527L176.925 44H179.309V42ZM184.522 42V44H186.201L186.492 42.3473L184.522 42ZM191.3 3.56055V1.56055H189.622L189.33 3.21328L191.3 3.56055ZM220.804 3.56055L222.773 3.9078L223.187 1.56055H220.804V3.56055ZM219.015 13.708V15.708H220.693L220.984 14.0553L219.015 13.708ZM201.352 13.708V11.708H199.673L199.382 13.3608L201.352 13.708ZM200.549 18.2617L198.579 17.9145L198.165 20.2617H200.549V18.2617ZM216.196 18.2617L218.166 18.6091L218.58 16.2617H216.196V18.2617ZM214.465 28.0781V30.0781H216.143L216.434 28.4255L214.465 28.0781ZM198.817 28.0781V26.0781H197.139L196.848 27.731L198.817 28.0781ZM197.84 33.625L195.87 33.2779L195.457 35.625H197.84V33.625ZM215.936 33.625L217.905 33.9723L218.319 31.625H215.936V33.625ZM214.459 42L212.489 41.6527L212.076 44H214.459V42ZM342 42L343.414 43.4142L346.828 40H342V42ZM306 78V80H306.828L307.414 79.4142L306 78ZM2 78H0V80H2V78ZM2 42V40H0V42H2ZM22.2744 42V44H29.2249L23.3374 40.3059L22.2744 42ZM18.835 38.8994L17.2549 40.1256L17.255 40.1256L18.835 38.8994ZM16.1348 23.6904L14.1652 23.3431L14.1651 23.3432L16.1348 23.6904ZM24.2031 8.46191L22.878 6.96394L22.8779 6.96396L24.2031 8.46191ZM330 78V80H330.828L331.414 79.4142L330 78ZM318 78L316.586 76.5858L313.172 80H318V78ZM354 42V40H353.172L352.586 40.5858L354 42ZM366 42L367.414 43.4142L370.828 40H366V42ZM354 78V80H354.828L355.414 79.4142L354 78ZM342 78L340.586 76.5858L337.172 80H342V78ZM378 42V40H377.172L376.586 40.5858L378 42ZM390 42L391.414 43.4142L394.828 40H390V42ZM40.7412 42L40.0069 40.1397L40.7412 44V42ZM40.7461 42V44H41.1262L41.4799 43.8605L40.7461 42ZM40.7559 41.9961L40.0212 40.1359L40.0212 40.1359L40.7559 41.9961ZM41.207 41.8125L41.9846 43.6552L44.7227 42.4998L42.6212 40.3983L41.207 41.8125ZM41.2061 41.8115L42.6203 40.3973L41.6686 39.4456L40.4286 39.9688L41.2061 41.8115ZM52.624 32.3828L54.5937 32.73L50.8625 31.4357L52.624 32.3828ZM47.5098 38.8994L48.836 40.3964L48.836 40.3964L47.5098 38.8994ZM42.9775 42L42.0635 40.2211L42.9775 44V42ZM50.9287 42V44H52.607L52.8983 42.3472L50.9287 42ZM62.2412 42L60.2716 41.6527L59.8578 44H62.2412V42ZM74.9639 42V44H78.1978L76.7533 41.1066L74.9639 42ZM65.5615 23.167L67.3509 22.2736L64.6441 16.8518L63.5919 22.8197L65.5615 23.167ZM154.444 42L152.475 41.6527L152.061 44H154.444V42ZM167.167 42V44H170.401L168.956 41.1066L167.167 42ZM157.765 23.167L159.554 22.2736L156.847 16.8518L155.795 22.8197L157.765 23.167ZM37.6816 13.3291L37.6817 11.3291L37.6816 11.3291L37.6816 13.3291ZM31.8438 15.9092L30.3782 14.5482L30.3782 14.5483L31.8438 15.9092ZM28.4072 23.6904L26.4376 23.3431L26.4376 23.3432L28.4072 23.6904ZM29.1104 31.4121L27.3773 32.4103L27.3773 32.4104L29.1104 31.4121ZM34.0371 34.0029L34.0371 36.0029L34.0373 36.0029L34.0371 34.0029ZM39.8896 31.4297L41.3557 32.7901L41.3558 32.79L39.8896 31.4297ZM43.3027 23.6904L45.2723 24.0378L45.2723 24.0377L43.3027 23.6904ZM42.623 15.9238L44.3602 14.9327L44.3601 14.9326L42.623 15.9238ZM79.3789 27.3281L77.4093 26.9808L77.2945 27.6315L77.5901 28.2226L79.3789 27.3281ZM79.3799 27.3301L77.591 28.2245L80.2983 33.6391L81.3495 27.6774L79.3799 27.3301ZM83.3975 4.54492L85.3671 4.89221L85.781 2.54492H83.3975V4.54492ZM83.3965 4.54492V2.54492H81.7183L81.4269 4.1976L83.3965 4.54492ZM171.582 27.3281L169.612 26.9808L169.498 27.6315L169.793 28.2226L171.582 27.3281ZM171.583 27.3301L169.794 28.2245L172.501 33.6391L173.553 27.6774L171.583 27.3301ZM175.601 4.54492L177.57 4.89221L177.984 2.54492H175.601V4.54492ZM175.6 4.54492V2.54492H173.921L173.63 4.1976L175.6 4.54492ZM38.8115 12.3936L39.0221 10.4047L38.9834 10.4006L38.9446 10.398L38.8115 12.3936ZM38.7969 12.3926L38.9299 10.397L38.5898 14.3818L38.7969 12.3926ZM39.5293 2.85156L39.5293 4.85156C44.9834 4.85166 48.9347 6.65218 51.2973 9.6898L52.876 8.46191L54.4547 7.23403C51.1424 2.97536 45.8674 0.851676 39.5293 0.851563L39.5293 2.85156ZM52.876 8.46191L51.2972 9.68974C52.4801 11.2107 53.3119 13.0951 53.7266 15.3399L55.6934 14.9766L57.6601 14.6132C57.1427 11.8126 56.0749 9.31736 54.4547 7.23409L52.876 8.46191ZM55.6934 14.9766L57.663 15.3238L59.6757 3.9078L57.7061 3.56055L55.7364 3.21329L53.7237 14.6293L55.6934 14.9766ZM57.7061 3.56055V5.56055H68.6982V3.56055V1.56055H57.7061V3.56055ZM68.6982 3.56055L66.9094 4.45497L67.1291 4.89443L68.918 4L70.7068 3.10557L70.4871 2.66612L68.6982 3.56055ZM68.918 4L67.129 4.89429L77.1642 24.9685L78.9531 24.0742L80.742 23.1799L70.7069 3.10571L68.918 4ZM78.9531 24.0742L80.9227 24.4215L84.5399 3.90785L82.5703 3.56055L80.6007 3.21324L76.9835 23.7269L78.9531 24.0742ZM82.5703 3.56055V5.56055H93.8828V3.56055V1.56055H82.5703V3.56055ZM93.8828 3.56055L91.9132 3.21328L85.1358 41.6527L87.1055 42L89.0751 42.3473L95.8524 3.90781L93.8828 3.56055ZM87.1055 42V44H92.3193V42V40H87.1055V42ZM92.3193 42L94.289 42.3473L101.066 3.90781L99.0967 3.56055L97.1271 3.21328L90.3497 41.6527L92.3193 42ZM99.0967 3.56055V5.56055H110.938V3.56055V1.56055H99.0967V3.56055ZM110.938 3.56055L108.968 3.21328L103.667 33.2777L105.637 33.625L107.606 33.9723L112.907 3.90782L110.938 3.56055ZM105.637 33.625V35.625H122.148V33.625V31.625H105.637V33.625ZM122.148 33.625L120.179 33.2777L118.702 41.6527L120.672 42L122.641 42.3473L124.118 33.9723L122.148 33.625ZM120.672 42V44H126.069V42V40H120.672V42ZM126.069 42L128.039 42.3473L134.816 3.90781L132.847 3.56055L130.877 3.21328L124.1 41.6527L126.069 42ZM132.847 3.56055V5.56055H144.688V3.56055V1.56055H132.847V3.56055ZM144.688 3.56055L142.718 3.21328L135.941 41.6527L137.91 42L139.88 42.3473L146.657 3.90781L144.688 3.56055ZM137.91 42V44H143.132V42V40H137.91V42ZM143.132 42L145.101 42.3473L151.879 3.90781L149.909 3.56055L147.94 3.21328L141.162 41.6527L143.132 42ZM149.909 3.56055V5.56055H160.901V3.56055V1.56055H149.909V3.56055ZM160.901 3.56055L159.113 4.45497L159.332 4.89443L161.121 4L162.91 3.10557L162.69 2.66612L160.901 3.56055ZM161.121 4L159.332 4.89429L169.367 24.9685L171.156 24.0742L172.945 23.1799L162.91 3.10571L161.121 4ZM171.156 24.0742L173.126 24.4215L176.743 3.90785L174.773 3.56055L172.804 3.21324L169.187 23.7269L171.156 24.0742ZM174.773 3.56055V5.56055H186.086V3.56055V1.56055H174.773V3.56055ZM186.086 3.56055L184.116 3.21328L177.339 41.6527L179.309 42L181.278 42.3473L188.056 3.90781L186.086 3.56055ZM179.309 42V44H184.522V42V40H179.309V42ZM184.522 42L186.492 42.3473L193.269 3.90781L191.3 3.56055L189.33 3.21328L182.553 41.6527L184.522 42ZM191.3 3.56055V5.56055H220.804V3.56055V1.56055H191.3V3.56055ZM220.804 3.56055L218.834 3.21329L217.045 13.3608L219.015 13.708L220.984 14.0553L222.773 3.9078L220.804 3.56055ZM219.015 13.708V11.708H201.352V13.708V15.708H219.015V13.708ZM201.352 13.708L199.382 13.3608L198.579 17.9145L200.549 18.2617L202.518 18.6089L203.321 14.0552L201.352 13.708ZM200.549 18.2617V20.2617H216.196V18.2617V16.2617H200.549V18.2617ZM216.196 18.2617L214.227 17.9143L212.495 27.7307L214.465 28.0781L216.434 28.4255L218.166 18.6091L216.196 18.2617ZM214.465 28.0781V26.0781H198.817V28.0781V30.0781H214.465V28.0781ZM198.817 28.0781L196.848 27.731L195.87 33.2779L197.84 33.625L199.809 33.9721L200.787 28.4252L198.817 28.0781ZM197.84 33.625V35.625H215.936V33.625V31.625H197.84V33.625ZM215.936 33.625L213.966 33.2777L212.489 41.6527L214.459 42L216.429 42.3473L217.905 33.9723L215.936 33.625ZM214.459 42V44H342V42V40H214.459V42ZM342 42L340.586 40.5858L304.586 76.5858L306 78L307.414 79.4142L343.414 43.4142L342 42ZM306 78V76H2V78V80H306V78ZM2 78H4V42H2H0V78H2ZM2 42V44H22.2744V42V40H2V42ZM22.2744 42L23.3374 40.3059C22.1963 39.5899 21.2197 38.7102 20.415 37.6732L18.835 38.8994L17.255 40.1256C18.3546 41.5425 19.6842 42.7359 21.2114 43.6941L22.2744 42ZM18.835 38.8994L20.415 37.6733C18.037 34.6089 17.0501 30.0171 18.1044 24.0377L16.1348 23.6904L14.1651 23.3432C12.9845 30.0394 13.972 35.895 17.2549 40.1256L18.835 38.8994ZM16.1348 23.6904L18.1044 24.0377C19.1581 18.062 21.7929 13.2645 25.5283 9.95987L24.2031 8.46191L22.8779 6.96396C18.379 10.944 15.3547 16.5968 14.1652 23.3431L16.1348 23.6904ZM24.2031 8.46191L25.5283 9.95989C29.2649 6.65439 34.0912 4.85162 39.5293 4.85156L39.5293 2.85156L39.5293 0.851563C33.1748 0.85163 27.3895 2.97283 22.878 6.96394L24.2031 8.46191ZM330 78V76H318V78V80H330V78ZM318 78L319.414 79.4142L355.414 43.4142L354 42L352.586 40.5858L316.586 76.5858L318 78ZM354 42V44H366V42V40H354V42ZM366 42L364.586 40.5858L328.586 76.5858L330 78L331.414 79.4142L367.414 43.4142L366 42ZM354 78V76H342V78V80H354V78ZM342 78L343.414 79.4142L379.414 43.4142L378 42L376.586 40.5858L340.586 76.5858L342 78ZM378 42V44H390V42V40H378V42ZM390 42L388.586 40.5858L352.586 76.5858L354 78L355.414 79.4142L391.414 43.4142L390 42ZM40.7412 42V44H40.7461V42V40H40.7412V42ZM40.7461 42L41.4799 43.8605C41.485 43.8585 41.4892 43.8568 41.4922 43.8556C41.4949 43.8545 41.4974 43.8535 41.498 43.8533C41.4992 43.8528 41.4984 43.8531 41.4975 43.8535C41.4963 43.854 41.4939 43.855 41.4906 43.8563L40.7559 41.9961L40.0212 40.1359C40.0162 40.1379 40.0121 40.1395 40.0093 40.1406C40.0068 40.1417 40.0044 40.1426 40.0039 40.1428C40.0029 40.1432 40.0038 40.1429 40.0049 40.1424C40.0062 40.1419 40.0089 40.1408 40.0123 40.1395L40.7461 42ZM40.7559 41.9961L41.4906 43.8563C41.6511 43.7929 41.8167 43.726 41.9846 43.6552L41.207 41.8125L40.4295 39.9698C40.2986 40.0251 40.1631 40.0799 40.0212 40.1359L40.7559 41.9961ZM41.207 41.8125L42.6212 40.3983L42.6203 40.3973L41.2061 41.8115L39.7918 43.2257L39.7928 43.2267L41.207 41.8125ZM41.2061 41.8115L40.4286 39.9688C40.2965 40.0246 40.1585 40.0798 40.0069 40.1397L40.7412 42L41.4755 43.8603C41.6354 43.7972 41.8079 43.7283 41.9835 43.6542L41.2061 41.8115ZM52.624 32.3828L50.8625 31.4357C49.6135 33.7585 48.0363 35.7609 46.1835 37.4024L47.5098 38.8994L48.836 40.3964C51.0575 38.4283 52.9238 36.0484 54.3855 33.33L52.624 32.3828ZM47.5098 38.8994L46.1835 37.4024C44.924 38.5182 43.544 39.4603 42.0635 40.2211L42.9775 42L43.8916 43.7789C45.6691 42.8655 47.3261 41.7341 48.836 40.3964L47.5098 38.8994ZM42.9775 42V44H50.9287V42V40H42.9775V42ZM50.9287 42L52.8983 42.3472L54.5937 32.73L52.624 32.3828L50.6544 32.0356L48.9591 41.6528L50.9287 42ZM62.2412 42V44H74.9639V42V40H62.2412V42ZM74.9639 42L76.7533 41.1066L67.3509 22.2736L65.5615 23.167L63.7721 24.0603L73.1745 42.8934L74.9639 42ZM65.5615 23.167L63.5919 22.8197L60.2716 41.6527L62.2412 42L64.2108 42.3473L67.5311 23.5142L65.5615 23.167ZM154.444 42V44H167.167V42V40H154.444V42ZM167.167 42L168.956 41.1066L159.554 22.2736L157.765 23.167L155.975 24.0603L165.378 42.8934L167.167 42ZM157.765 23.167L155.795 22.8197L152.475 41.6527L154.444 42L156.414 42.3473L159.734 23.5142L157.765 23.167ZM37.6816 13.3291L37.6816 11.3291C34.7873 11.3292 32.2958 12.4832 30.3782 14.5482L31.8438 15.9092L33.3093 17.2701C34.5045 15.9831 35.949 15.3292 37.6817 15.3291L37.6816 13.3291ZM31.8438 15.9092L30.3782 14.5483C28.458 16.6162 27.0955 19.612 26.4376 23.3431L28.4072 23.6904L30.3768 24.0377C30.9408 20.8396 32.0502 18.6261 33.3093 17.2701L31.8438 15.9092ZM28.4072 23.6904L26.4376 23.3432C25.795 26.9881 26.0606 30.1243 27.3773 32.4103L29.1104 31.4121L30.8434 30.4139C30.1864 29.2732 29.8154 27.2221 30.3768 24.0377L28.4072 23.6904ZM29.1104 31.4121L27.3773 32.4104C28.753 34.7986 31.1218 36.0029 34.0371 36.0029V34.0029V32.0029C32.3324 32.0029 31.4017 31.383 30.8434 30.4138L29.1104 31.4121ZM34.0371 34.0029L34.0373 36.0029C36.954 36.0027 39.4443 34.85 41.3557 32.7901L39.8896 31.4297L38.4236 30.0693C37.2402 31.3446 35.7994 32.0028 34.0369 32.0029L34.0371 34.0029ZM39.8896 31.4297L41.3558 32.79C43.269 30.7278 44.6187 27.7446 45.2723 24.0378L43.3027 23.6904L41.3331 23.3431C40.7726 26.5216 39.6743 28.7213 38.4235 30.0694L39.8896 31.4297ZM43.3027 23.6904L45.2723 24.0377C45.9184 20.3737 45.6684 17.2256 44.3602 14.9327L42.623 15.9238L40.8859 16.915C41.5381 18.058 41.9011 20.1217 41.3331 23.3431L43.3027 23.6904ZM42.623 15.9238L44.3601 14.9326C42.9908 12.5329 40.6185 11.3293 37.6817 11.3291L37.6816 13.3291L37.6815 15.3291C39.4161 15.3292 40.3373 15.9535 40.886 16.915L42.623 15.9238ZM79.3789 27.3281L77.5901 28.2226L77.591 28.2245L79.3799 27.3301L81.1687 26.4357L81.1678 26.4337L79.3789 27.3281ZM79.3799 27.3301L81.3495 27.6774L85.3671 4.89221L83.3975 4.54492L81.4278 4.19763L77.4103 26.9828L79.3799 27.3301ZM83.3975 4.54492V2.54492H83.3965V4.54492V6.54492H83.3975V4.54492ZM83.3965 4.54492L81.4269 4.1976L77.4093 26.9808L79.3789 27.3281L81.3485 27.6754L85.3661 4.89224L83.3965 4.54492ZM171.582 27.3281L169.793 28.2226L169.794 28.2245L171.583 27.3301L173.372 26.4357L173.371 26.4337L171.582 27.3281ZM171.583 27.3301L173.553 27.6774L177.57 4.89221L175.601 4.54492L173.631 4.19763L169.613 26.9828L171.583 27.3301ZM175.601 4.54492V2.54492H175.6V4.54492V6.54492H175.601V4.54492ZM175.6 4.54492L173.63 4.1976L169.612 26.9808L171.582 27.3281L173.552 27.6754L177.569 4.89224L175.6 4.54492ZM39.0137 12.4209L39.2738 10.4379C39.2566 10.4356 39.248 10.4342 39.1975 10.427C39.1581 10.4213 39.0944 10.4123 39.0221 10.4047L38.8115 12.3936L38.601 14.3824C38.5967 14.382 38.6006 14.3823 38.6285 14.3863C38.6351 14.3872 38.6419 14.3882 38.6505 14.3895C38.6586 14.3907 38.6686 14.3921 38.6787 14.3936C38.699 14.3965 38.725 14.4002 38.7535 14.4039L39.0137 12.4209ZM38.8115 12.3936L38.9446 10.398L38.9299 10.397L38.7969 12.3926L38.6638 14.3881L38.6785 14.3891L38.8115 12.3936ZM38.7969 12.3926L38.5898 14.3818C38.6308 14.3861 38.6118 14.3853 38.7535 14.4039L39.0137 12.4209L39.2738 10.4379C39.2721 10.4377 39.109 10.4143 39.0039 10.4033L38.7969 12.3926Z" fill="#FFFFFF" mask="url(#path-1-outside-1_0_1)"/>
<path d="M9 71H283V70H9V71Z" fill="#FFFFFF"/>
<path d="M283 71H297L289 63V70H283V71Z" fill="#FFFFFF"/>
</svg>
