<svg width="2640" height="96" viewBox="0 0 2640 96" fill="none" xmlns="http://www.w3.org/2000/svg">
<g filter="url(#filter0_d_555_2217)">
<path d="M20 16.0001H842L898 72.0001H1743L1799 16L2620 16.0001V24.0001H1802.5L1746 80.0001H893L838 24.0001H20V16.0001Z" fill="#BED9E4"/>
<path d="M1819.5 37H1839.5L1803 73H1783L1819.5 37Z" fill="#BED9E4"/>
<path d="M1855.5 37H1875.5L1839 73H1819L1855.5 37Z" fill="#BED9E4"/>
<path d="M1963.5 37H1983.5L1947 73H1927L1963.5 37Z" fill="#BED9E4"/>
<path d="M1891.5 37H1911.5L1875 73H1855L1891.5 37Z" fill="#BED9E4"/>
<path d="M1999.5 37H2019.5L1983 73H1963L1999.5 37Z" fill="#BED9E4"/>
<path d="M1927.5 37H1947.5L1911 73H1891L1927.5 37Z" fill="#BED9E4"/>
<path d="M2035.5 37H2055.5L2019 73H1999L2035.5 37Z" fill="#BED9E4"/>
<path d="M2070.5 37H2620V42L2102.5 41.866L2089 55H2052L2070.5 37Z" fill="#BED9E4"/>
<path d="M820.5 37H800.5L837 73H857L820.5 37Z" fill="#BED9E4"/>
<path d="M784.5 37H764.5L801 73H821L784.5 37Z" fill="#BED9E4"/>
<path d="M676.5 37H656.5L693 73H713L676.5 37Z" fill="#BED9E4"/>
<path d="M748.5 37H728.5L765 73H785L748.5 37Z" fill="#BED9E4"/>
<path d="M640.5 37H620.5L657 73H677L640.5 37Z" fill="#BED9E4"/>
<path d="M712.5 37H692.5L729 73H749L712.5 37Z" fill="#BED9E4"/>
<path d="M604.5 37H584.5L621 73H641L604.5 37Z" fill="#BED9E4"/>
<path d="M569.5 37H20V42L537.5 41.866L551 55H588L569.5 37Z" fill="#BED9E4"/>
</g>
<rect y="16" width="20" height="8" fill="url(#paint0_linear_555_2217)"/>
<rect y="37" width="20" height="5" fill="url(#paint1_linear_555_2217)"/>
<rect width="20" height="5" transform="matrix(-1 0 0 1 2640 37)" fill="url(#paint2_linear_555_2217)"/>
<rect width="20" height="8" transform="matrix(-1 0 0 1 2640 16)" fill="url(#paint3_linear_555_2217)"/>
<defs>
<filter id="filter0_d_555_2217" x="4" y="0" width="2632" height="96.0001" filterUnits="userSpaceOnUse" color-interpolation-filters="sRGB">
<feFlood flood-opacity="0" result="BackgroundImageFix"/>
<feColorMatrix in="SourceAlpha" type="matrix" values="0 0 0 0 0 0 0 0 0 0 0 0 0 0 0 0 0 0 127 0" result="hardAlpha"/>
<feOffset/>
<feGaussianBlur stdDeviation="8"/>
<feComposite in2="hardAlpha" operator="out"/>
<feColorMatrix type="matrix" values="0 0 0 0 0 0 0 0 0 0.85 0 0 0 0 1 0 0 0 1 0"/>
<feBlend mode="plus-lighter" in2="BackgroundImageFix" result="effect1_dropShadow_555_2217"/>
<feBlend mode="normal" in="SourceGraphic" in2="effect1_dropShadow_555_2217" result="shape"/>
</filter>
<linearGradient id="paint0_linear_555_2217" x1="20" y1="20" x2="0" y2="20" gradientUnits="userSpaceOnUse">
<stop stop-color="#BED9E4"/>
<stop offset="0.798077" stop-color="#BED9E4" stop-opacity="0"/>
</linearGradient>
<linearGradient id="paint1_linear_555_2217" x1="20" y1="39.5" x2="0" y2="39.5" gradientUnits="userSpaceOnUse">
<stop stop-color="#BED9E4"/>
<stop offset="0.798077" stop-color="#BED9E4" stop-opacity="0"/>
</linearGradient>
<linearGradient id="paint2_linear_555_2217" x1="20" y1="2.5" x2="0" y2="2.5" gradientUnits="userSpaceOnUse">
<stop stop-color="#BED9E4"/>
<stop offset="0.798077" stop-color="#BED9E4" stop-opacity="0"/>
</linearGradient>
<linearGradient id="paint3_linear_555_2217" x1="20" y1="4" x2="0" y2="4" gradientUnits="userSpaceOnUse">
<stop stop-color="#BED9E4"/>
<stop offset="0.798077" stop-color="#BED9E4" stop-opacity="0"/>
</linearGradient>
</defs>
</svg>
