<svg width="64" height="52" viewBox="0 0 64 52" fill="none" xmlns="http://www.w3.org/2000/svg">
<path d="M64 0H49.7778L23.7037 26H37.9259L64 0Z" fill="#F9C113"/>
<path d="M49.7778 37.8182H35.5556L23.7037 26H37.9259L49.7778 37.8182Z" fill="#F9C113"/>
<path d="M59.2593 47.2727L64 52H49.7778L45.037 47.2727H59.2593Z" fill="#F9C113"/>
<path d="M52.1481 40.1818L56.8889 44.9091H42.6667L37.9259 40.1818H52.1481Z" fill="#F9C113"/>
<path d="M40.2964 0H26.0742L9.15527e-05 26H14.2223L40.2964 0Z" fill="#F9C113"/>
<path d="M26.0742 37.8182H11.8519L9.15527e-05 26H14.2223L26.0742 37.8182Z" fill="#F9C113"/>
<path d="M35.5556 47.2727L40.2964 52H26.0742L21.3334 47.2727H35.5556Z" fill="#F9C113"/>
<path d="M28.4445 40.1818L33.1853 44.9091H18.9631L14.2223 40.1818H28.4445Z" fill="#F9C113"/>
</svg>
