<svg xmlns="http://www.w3.org/2000/svg" viewBox="0 0 296.06 58.98"><defs><style>.cls-1{fill:#fff;}</style></defs><g id="レイヤー_2" data-name="レイヤー 2"><g id="レイヤー_1-2" data-name="レイヤー 1"><polygon class="cls-1" points="189.41 47.64 178.11 32.3 166.82 47.64 162.17 47.64 175.76 29.11 163.35 12.27 168 12.27 178.11 26 188.22 12.27 192.87 12.27 180.47 29.11 194.06 47.64 189.41 47.64"/><polygon class="cls-1" points="101.35 47.64 87.75 29.11 100.16 12.27 95.5 12.27 85.39 26.01 75.29 12.27 70.65 12.27 83.05 29.11 69.45 47.64 74.11 47.64 85.4 32.3 96.69 47.64 101.35 47.64"/><path class="cls-1" d="M127.21,30.45A10.17,10.17,0,0,0,124.89,29a8,8,0,0,0,4.25-7.08c0-2.27-.83-9.63-11.5-9.63H103.28V27.52H98.49c-.62.81-2,2.75-2.57,3.55h7.36V47.64h14.36c7.79,0,12.62-4,12.62-10.33a8.73,8.73,0,0,0-3-6.86M107.25,16h10.39c2.82,0,7.53.7,7.53,5.62,0,3.72-2.75,5.94-7.53,5.94H107.25Zm10.39,28H107.25V31.07h10.39c3.94,0,8.66,1.09,8.66,6.17,0,5.83-5.42,6.71-8.66,6.71"/><path class="cls-1" d="M149,11.45c-9.94,0-16.89,7.6-16.89,18.48S139,48.42,149,48.42s16.85-7.59,16.85-18.49S158.87,11.45,149,11.45m0,33.23c-7.57,0-12.88-6.07-12.88-14.75S141.38,15.18,149,15.18s12.83,6.07,12.83,14.75S156.5,44.68,149,44.68"/><path class="cls-1" d="M8.8,8.48l0,0h0A29.47,29.47,0,0,0,6,47.35a.13.13,0,0,0,.16,0,.12.12,0,0,0,0-.15C4,40.3,15.47,23.45,21.4,16.38a.12.12,0,0,0,0-.08.14.14,0,0,0-.05-.1C11.4,6.26,8.74,8.54,8.77,8.5"/><path class="cls-1" d="M50.18,8.48l0,0h0A29.49,29.49,0,0,1,53,47.35a.13.13,0,0,1-.16,0,.12.12,0,0,1,0-.15c2.25-7-9.23-23.82-15.16-30.88,0,0,0-.05,0-.08a.11.11,0,0,1,.05-.1c10-9.94,12.64-7.65,12.6-7.69"/><path class="cls-1" d="M29.49,0A29.13,29.13,0,0,1,44.85,4.31a.13.13,0,0,1,0,.15.11.11,0,0,1-.14,0C39.05,3.28,30.37,8.21,29.55,8.7a.09.09,0,0,1-.06,0,.09.09,0,0,1-.07,0C27.25,7.45,19.23,3.25,14.18,4.54a.11.11,0,0,1-.15,0,.13.13,0,0,1,.05-.15A29.08,29.08,0,0,1,29.49,0"/><path class="cls-1" d="M29.49,23.65a.16.16,0,0,1,.09.05c8.82,6.71,23.93,23.3,19.32,28h0a29.45,29.45,0,0,1-38.82,0h0C5.47,47,20.57,30.41,29.39,23.7a.16.16,0,0,1,.1-.05"/><polygon class="cls-1" points="262.71 12.27 262.71 41.3 241.32 12.24 237.82 12.24 237.82 47.58 241.75 47.58 241.75 19.2 262.7 47.6 266.64 47.61 266.64 12.27 262.71 12.27"/><path class="cls-1" d="M217.38,11.44c-9.94,0-16.89,7.61-16.89,18.49s6.95,18.5,16.89,18.5,16.85-7.6,16.85-18.5-6.93-18.49-16.85-18.49m0,33.24c-7.58,0-12.88-6.07-12.88-14.75s5.3-14.75,12.88-14.75,12.83,6.07,12.83,14.75-5.28,14.75-12.83,14.75"/><polygon class="cls-1" points="275.03 44.15 275.03 31.07 294.49 31.07 294.49 27.61 275.03 27.61 275.03 15.7 295.81 15.7 295.81 12.24 271.07 12.24 271.07 47.61 296.06 47.61 296.06 44.15 275.03 44.15"/></g></g></svg>