<svg width="395" height="80" viewBox="0 0 395 80" fill="none" xmlns="http://www.w3.org/2000/svg">
<mask id="path-1-outside-1_578_3568" maskUnits="userSpaceOnUse" x="0" y="0.851562" width="395" height="80" fill="black">
<rect fill="white" y="0.851562" width="395" height="80"/>
<path d="M107.764 2.85156C113.66 2.85167 118.273 4.81377 121.11 8.46191C122.348 10.0536 123.234 11.9477 123.745 14.1064L125.604 3.56055H137.396L133.23 27.1875C132.805 29.6007 133.088 31.2848 133.849 32.3545C134.594 33.4023 135.899 34.0029 137.894 34.0029C139.887 34.0029 141.404 33.4021 142.519 32.3545C143.656 31.2848 144.533 29.6008 144.959 27.1875L149.125 3.56055H193.26L191.471 13.708H180.19L175.202 42H342L306 78H2V42H11.4492L31.7705 4.21484L32.1221 3.56055H46.1094L46.2305 4.21484L51.7373 33.9551L57.0967 3.56055H74.5127C78.976 3.56055 82.5292 4.36481 84.8164 6.16113C87.1556 7.99839 88.0631 10.788 87.4219 14.4248C87.3869 14.6232 87.3455 14.8198 87.3027 15.0137C88.6614 12.4754 90.3905 10.2728 92.4375 8.46191C96.5616 4.81361 101.867 2.85163 107.764 2.85156ZM330 78H318L354 42H366L330 78ZM354 78H342L378 42H390L354 78ZM24.2275 42H40.209L39.415 36.3516H27.0146L24.2275 42ZM85.0674 35.3047C83.9362 37.9986 82.0427 39.9805 79.625 41.3389C79.1954 41.5802 78.7507 41.7991 78.2939 42H90.5088C89.1746 41.1629 88.0215 40.1263 87.0693 38.8994C86.2415 37.8326 85.5734 36.6296 85.0674 35.3047ZM108.976 42H108.98C108.984 41.9987 108.987 41.9974 108.99 41.9961C109.141 41.9364 109.292 41.8755 109.441 41.8125L109.44 41.8115C109.287 41.8764 109.131 41.9385 108.976 42ZM120.979 32.1543C119.605 34.7711 117.843 37.0403 115.744 38.8994C114.359 40.1262 112.841 41.1629 111.212 42H125.582C124.785 41.4555 124.088 40.8221 123.493 40.0977C121.819 38.0597 121.014 35.383 120.979 32.1543ZM156.581 27.3301C155.62 32.7782 153.458 37.1244 149.922 40.1025C149.064 40.8249 148.136 41.4566 147.142 42H163.362L168.351 13.708H158.983L156.581 27.3301ZM70.0195 34.9902C69.6491 35.0199 69.2643 35.0342 68.8672 35.0342H62.0039V35.0352H68.8672C69.2643 35.0352 69.6491 35.0202 70.0195 34.9902ZM63.1768 34.0498H69.041C70.6009 34.0498 71.7653 33.8353 72.5615 33.3838C73.2548 32.9907 73.8156 32.3342 74.0479 31.0176C74.2775 29.7152 73.9857 29.0416 73.4717 28.6387C72.8901 28.1831 71.8571 27.9356 70.2637 27.9355H64.2549L63.1768 34.0498ZM105.916 13.3291C103.603 13.3292 101.635 14.2331 100.078 15.9092C98.4884 17.6212 97.2525 20.2258 96.6416 23.6904C96.0396 27.1051 96.3579 29.6987 97.3447 31.4121C98.3117 33.0908 99.9615 34.0029 102.271 34.0029C104.611 34.0027 106.577 33.0973 108.124 31.4297C109.706 29.7246 110.93 27.1331 111.537 23.6904C112.144 20.2477 111.838 17.6418 110.857 15.9238C109.898 14.2432 108.252 13.3292 105.916 13.3291ZM75.0762 29.3174L75.0713 29.2881C75.068 29.2719 75.0631 29.2562 75.0596 29.2402C75.0653 29.2657 75.0711 29.2914 75.0762 29.3174ZM122.413 27.3301C122.301 27.9638 122.212 28.5797 122.146 29.1777L122.264 28.2666C122.308 27.9589 122.358 27.6467 122.414 27.3301L126.432 4.54492H126.431L122.413 27.3301ZM84.9355 28.2021V28.1982C84.9324 28.1854 84.928 28.1729 84.9248 28.1602C84.9283 28.1742 84.9322 28.1881 84.9355 28.2021ZM31.8818 26.4395H38.0469L36.7051 16.6602L31.8818 26.4395ZM85.4785 19.2764C85.2262 19.6399 84.9533 19.9901 84.6572 20.3223C83.7929 21.2919 82.7644 22.097 81.5977 22.7422C82.6212 23.2284 83.5058 23.8486 84.2197 24.6172C84.2645 24.311 84.3142 24.0021 84.3691 23.6904C84.6407 22.1506 85.0128 20.6767 85.4785 19.2764ZM65.8359 18.9707H71.0762C72.5678 18.9707 73.5537 18.7262 74.1855 18.3125C74.7448 17.9462 75.215 17.3187 75.4336 16.0791C75.6449 14.8802 75.4102 14.281 74.999 13.9297C74.5305 13.5296 73.6463 13.2822 72.127 13.2822H66.8389L65.8359 18.9707ZM75.6777 18.083C75.6177 18.1718 75.5553 18.2573 75.4893 18.3389C75.5552 18.2576 75.6178 18.1725 75.6777 18.084V18.083ZM76.3682 14.0693C76.3423 13.9959 76.3141 13.9248 76.2822 13.8564C76.3141 13.9248 76.3423 13.9959 76.3682 14.0693ZM107.248 12.4209C107.181 12.4121 107.114 12.4008 107.046 12.3936L107.031 12.3926C107.104 12.4002 107.176 12.4115 107.248 12.4209Z"/>
</mask>
<path d="M107.764 2.85156C113.66 2.85167 118.273 4.81377 121.11 8.46191C122.348 10.0536 123.234 11.9477 123.745 14.1064L125.604 3.56055H137.396L133.23 27.1875C132.805 29.6007 133.088 31.2848 133.849 32.3545C134.594 33.4023 135.899 34.0029 137.894 34.0029C139.887 34.0029 141.404 33.4021 142.519 32.3545C143.656 31.2848 144.533 29.6008 144.959 27.1875L149.125 3.56055H193.26L191.471 13.708H180.19L175.202 42H342L306 78H2V42H11.4492L31.7705 4.21484L32.1221 3.56055H46.1094L46.2305 4.21484L51.7373 33.9551L57.0967 3.56055H74.5127C78.976 3.56055 82.5292 4.36481 84.8164 6.16113C87.1556 7.99839 88.0631 10.788 87.4219 14.4248C87.3869 14.6232 87.3455 14.8198 87.3027 15.0137C88.6614 12.4754 90.3905 10.2728 92.4375 8.46191C96.5616 4.81361 101.867 2.85163 107.764 2.85156ZM330 78H318L354 42H366L330 78ZM354 78H342L378 42H390L354 78ZM24.2275 42H40.209L39.415 36.3516H27.0146L24.2275 42ZM85.0674 35.3047C83.9362 37.9986 82.0427 39.9805 79.625 41.3389C79.1954 41.5802 78.7507 41.7991 78.2939 42H90.5088C89.1746 41.1629 88.0215 40.1263 87.0693 38.8994C86.2415 37.8326 85.5734 36.6296 85.0674 35.3047ZM108.976 42H108.98C108.984 41.9987 108.987 41.9974 108.99 41.9961C109.141 41.9364 109.292 41.8755 109.441 41.8125L109.44 41.8115C109.287 41.8764 109.131 41.9385 108.976 42ZM120.979 32.1543C119.605 34.7711 117.843 37.0403 115.744 38.8994C114.359 40.1262 112.841 41.1629 111.212 42H125.582C124.785 41.4555 124.088 40.8221 123.493 40.0977C121.819 38.0597 121.014 35.383 120.979 32.1543ZM156.581 27.3301C155.62 32.7782 153.458 37.1244 149.922 40.1025C149.064 40.8249 148.136 41.4566 147.142 42H163.362L168.351 13.708H158.983L156.581 27.3301ZM70.0195 34.9902C69.6491 35.0199 69.2643 35.0342 68.8672 35.0342H62.0039V35.0352H68.8672C69.2643 35.0352 69.6491 35.0202 70.0195 34.9902ZM63.1768 34.0498H69.041C70.6009 34.0498 71.7653 33.8353 72.5615 33.3838C73.2548 32.9907 73.8156 32.3342 74.0479 31.0176C74.2775 29.7152 73.9857 29.0416 73.4717 28.6387C72.8901 28.1831 71.8571 27.9356 70.2637 27.9355H64.2549L63.1768 34.0498ZM105.916 13.3291C103.603 13.3292 101.635 14.2331 100.078 15.9092C98.4884 17.6212 97.2525 20.2258 96.6416 23.6904C96.0396 27.1051 96.3579 29.6987 97.3447 31.4121C98.3117 33.0908 99.9615 34.0029 102.271 34.0029C104.611 34.0027 106.577 33.0973 108.124 31.4297C109.706 29.7246 110.93 27.1331 111.537 23.6904C112.144 20.2477 111.838 17.6418 110.857 15.9238C109.898 14.2432 108.252 13.3292 105.916 13.3291ZM75.0762 29.3174L75.0713 29.2881C75.068 29.2719 75.0631 29.2562 75.0596 29.2402C75.0653 29.2657 75.0711 29.2914 75.0762 29.3174ZM122.413 27.3301C122.301 27.9638 122.212 28.5797 122.146 29.1777L122.264 28.2666C122.308 27.9589 122.358 27.6467 122.414 27.3301L126.432 4.54492H126.431L122.413 27.3301ZM84.9355 28.2021V28.1982C84.9324 28.1854 84.928 28.1729 84.9248 28.1602C84.9283 28.1742 84.9322 28.1881 84.9355 28.2021ZM31.8818 26.4395H38.0469L36.7051 16.6602L31.8818 26.4395ZM85.4785 19.2764C85.2262 19.6399 84.9533 19.9901 84.6572 20.3223C83.7929 21.2919 82.7644 22.097 81.5977 22.7422C82.6212 23.2284 83.5058 23.8486 84.2197 24.6172C84.2645 24.311 84.3142 24.0021 84.3691 23.6904C84.6407 22.1506 85.0128 20.6767 85.4785 19.2764ZM65.8359 18.9707H71.0762C72.5678 18.9707 73.5537 18.7262 74.1855 18.3125C74.7448 17.9462 75.215 17.3187 75.4336 16.0791C75.6449 14.8802 75.4102 14.281 74.999 13.9297C74.5305 13.5296 73.6463 13.2822 72.127 13.2822H66.8389L65.8359 18.9707ZM75.6777 18.083C75.6177 18.1718 75.5553 18.2573 75.4893 18.3389C75.5552 18.2576 75.6178 18.1725 75.6777 18.084V18.083ZM76.3682 14.0693C76.3423 13.9959 76.3141 13.9248 76.2822 13.8564C76.3141 13.9248 76.3423 13.9959 76.3682 14.0693ZM107.248 12.4209C107.181 12.4121 107.114 12.4008 107.046 12.3936L107.031 12.3926C107.104 12.4002 107.176 12.4115 107.248 12.4209Z" fill="black"/>
<path d="M107.764 2.85156L107.764 0.851562L107.764 0.851563L107.764 2.85156ZM121.11 8.46191L122.689 7.23409L122.689 7.23403L121.11 8.46191ZM123.745 14.1064L121.799 14.5672L125.715 14.4537L123.745 14.1064ZM125.604 3.56055V1.56055H123.926L123.635 3.21328L125.604 3.56055ZM137.396 3.56055L139.366 3.90784L139.78 1.56055H137.396V3.56055ZM133.23 27.1875L135.2 27.5348L135.2 27.5348L133.23 27.1875ZM133.849 32.3545L132.219 33.5134L132.219 33.5135L133.849 32.3545ZM137.894 34.0029L137.894 36.0029L137.894 36.0029L137.894 34.0029ZM142.519 32.3545L143.888 33.8118L143.888 33.8117L142.519 32.3545ZM144.959 27.1875L146.929 27.5348L146.929 27.5348L144.959 27.1875ZM149.125 3.56055V1.56055H147.447L147.155 3.21325L149.125 3.56055ZM193.26 3.56055L195.229 3.9078L195.643 1.56055H193.26V3.56055ZM191.471 13.708V15.708H193.149L193.44 14.0553L191.471 13.708ZM180.19 13.708V11.708H178.512L178.221 13.3607L180.19 13.708ZM175.202 42L173.233 41.6527L172.819 44H175.202V42ZM342 42L343.414 43.4142L346.828 40H342V42ZM306 78V80H306.828L307.414 79.4142L306 78ZM2 78H0V80H2V78ZM2 42V40H0V42H2ZM11.4492 42V44H12.6445L13.2106 42.9473L11.4492 42ZM31.7705 4.21484L33.5319 5.16216L33.5323 5.16147L31.7705 4.21484ZM32.1221 3.56055V1.56055H30.9263L30.3603 2.61392L32.1221 3.56055ZM46.1094 3.56055L48.076 3.19658L47.7732 1.56055H46.1094V3.56055ZM46.2305 4.21484L44.2639 4.57881L44.2639 4.57898L46.2305 4.21484ZM51.7373 33.9551L49.7707 34.3192L53.7069 34.3024L51.7373 33.9551ZM57.0967 3.56055V1.56055H55.4185L55.1271 3.21325L57.0967 3.56055ZM84.8164 6.16113L86.0518 4.58826L86.0517 4.58823L84.8164 6.16113ZM87.4219 14.4248L89.3915 14.7721L89.3915 14.7721L87.4219 14.4248ZM87.3027 15.0137L85.3497 14.583L89.066 15.9575L87.3027 15.0137ZM92.4375 8.46191L91.1123 6.96394L91.1123 6.96396L92.4375 8.46191ZM330 78V80H330.828L331.414 79.4142L330 78ZM318 78L316.586 76.5858L313.172 80H318V78ZM354 42V40H353.172L352.586 40.5858L354 42ZM366 42L367.414 43.4142L370.828 40H366V42ZM354 78V80H354.828L355.414 79.4142L354 78ZM342 78L340.586 76.5858L337.172 80H342V78ZM378 42V40H377.172L376.586 40.5858L378 42ZM390 42L391.414 43.4142L394.828 40H390V42ZM24.2275 42L22.434 41.115L21.0105 44H24.2275V42ZM40.209 42V44H42.5098L42.1895 41.7216L40.209 42ZM39.415 36.3516L41.3956 36.0732L41.1536 34.3516H39.415V36.3516ZM27.0146 36.3516V34.3516H25.7713L25.2211 35.4666L27.0146 36.3516ZM85.0674 35.3047L86.9358 34.5911L85.1554 29.9293L83.2234 34.5304L85.0674 35.3047ZM79.625 41.3389L80.6046 43.0825L80.6047 43.0825L79.625 41.3389ZM78.2939 42L77.4886 40.1693L78.2939 44V42ZM90.5088 42V44H97.4593L91.5718 40.3059L90.5088 42ZM87.0693 38.8994L85.4893 40.1256L85.4893 40.1256L87.0693 38.8994ZM108.976 42L108.241 40.1397L108.976 44V42ZM108.98 42V44H109.361L109.714 43.8605L108.98 42ZM108.99 41.9961L108.256 40.1359L108.256 40.1359L108.99 41.9961ZM109.441 41.8125L110.219 43.6552L112.957 42.4998L110.856 40.3983L109.441 41.8125ZM109.44 41.8115L110.855 40.3973L109.903 39.4456L108.663 39.9688L109.44 41.8115ZM120.979 32.1543L122.978 32.1325L119.208 31.2249L120.979 32.1543ZM115.744 38.8994L117.07 40.3964L117.07 40.3964L115.744 38.8994ZM111.212 42L110.298 40.2211L111.212 44V42ZM125.582 42V44H132.052L126.711 40.3489L125.582 42ZM123.493 40.0977L121.948 41.3672L121.948 41.3672L123.493 40.0977ZM156.581 27.3301L154.611 26.9827L154.611 26.9828L156.581 27.3301ZM149.922 40.1025L151.21 41.6323L151.21 41.6323L149.922 40.1025ZM147.142 42L146.183 40.2448L147.142 44V42ZM163.362 42V44H165.041L165.332 42.3473L163.362 42ZM168.351 13.708L170.32 14.0553L170.734 11.708H168.351V13.708ZM158.983 13.708V11.708H157.305L157.014 13.3607L158.983 13.708ZM70.0195 34.9902L70.1806 36.9837L69.8599 32.9966L70.0195 34.9902ZM62.0039 35.0342V33.0342H60.0039V35.0342H62.0039ZM62.0039 35.0352H60.0039V37.0352H62.0039V35.0352ZM63.1768 34.0498L61.2071 33.7025L60.7932 36.0498H63.1768V34.0498ZM72.5615 33.3838L73.548 35.1236L73.5481 35.1235L72.5615 33.3838ZM74.0479 31.0176L76.0174 31.3651L76.0175 31.3649L74.0479 31.0176ZM73.4717 28.6387L74.7056 27.0647L74.705 27.0642L73.4717 28.6387ZM70.2637 27.9355L70.2637 25.9355H70.2637V27.9355ZM64.2549 27.9355V25.9355H62.5767L62.2853 27.5882L64.2549 27.9355ZM105.916 13.3291L105.916 11.3291L105.916 11.3291L105.916 13.3291ZM100.078 15.9092L98.6126 14.5482L98.6125 14.5483L100.078 15.9092ZM96.6416 23.6904L94.672 23.3431L94.672 23.3432L96.6416 23.6904ZM97.3447 31.4121L95.6116 32.4103L95.6117 32.4104L97.3447 31.4121ZM102.271 34.0029L102.271 36.0029L102.272 36.0029L102.271 34.0029ZM108.124 31.4297L109.59 32.7901L109.59 32.79L108.124 31.4297ZM111.537 23.6904L113.507 24.0378L113.507 24.0377L111.537 23.6904ZM110.857 15.9238L112.595 14.9327L112.595 14.9326L110.857 15.9238ZM75.0762 29.3174L73.1138 29.7033L77.049 28.9886L75.0762 29.3174ZM75.0713 29.2881L77.0441 28.9593L77.0378 28.9216L77.0301 28.8841L75.0713 29.2881ZM75.0596 29.2402L77.0113 28.8034L73.1077 29.6764L75.0596 29.2402ZM122.413 27.3301L120.443 26.9828L120.443 26.9828L122.413 27.3301ZM122.146 29.1777L120.158 28.9552L124.129 29.435L122.146 29.1777ZM122.264 28.2666L120.284 27.9792L120.282 27.9942L120.28 28.0094L122.264 28.2666ZM122.414 27.3301L120.444 26.9828L120.444 26.9828L122.414 27.3301ZM126.432 4.54492L128.401 4.89221L128.815 2.54492H126.432V4.54492ZM126.431 4.54492V2.54492H124.752L124.461 4.19763L126.431 4.54492ZM84.9355 28.2021L82.9914 28.6716L86.9355 28.2021H84.9355ZM84.9355 28.1982H86.9355V27.9596L86.8794 27.7277L84.9355 28.1982ZM84.9248 28.1602L86.866 27.6789L82.9836 28.6414L84.9248 28.1602ZM31.8818 26.4395L30.0881 25.5548L28.6654 28.4395H31.8818V26.4395ZM38.0469 26.4395V28.4395H40.34L40.0283 26.1676L38.0469 26.4395ZM36.7051 16.6602L38.6865 16.3883L37.7991 9.92055L34.9114 15.7755L36.7051 16.6602ZM85.4785 19.2764L87.3763 19.9075L83.8354 18.1361L85.4785 19.2764ZM84.6572 20.3223L86.1501 21.6531L86.1502 21.6531L84.6572 20.3223ZM81.5977 22.7422L80.6298 20.992L77.2206 22.8772L80.7395 24.5487L81.5977 22.7422ZM84.2197 24.6172L82.7543 25.9783L85.5945 29.036L86.1987 24.9067L84.2197 24.6172ZM84.3691 23.6904L82.3995 23.3431L82.3995 23.3432L84.3691 23.6904ZM65.8359 18.9707L63.8663 18.6234L63.4525 20.9707H65.8359V18.9707ZM71.0762 18.9707L71.0762 20.9707L71.0762 20.9707L71.0762 18.9707ZM74.1855 18.3125L75.2811 19.9858L75.2813 19.9856L74.1855 18.3125ZM75.4336 16.0791L77.4032 16.4265L77.4032 16.4263L75.4336 16.0791ZM74.999 13.9297L76.2982 12.4091L76.2979 12.4089L74.999 13.9297ZM72.127 13.2822L72.127 11.2822H72.127V13.2822ZM66.8389 13.2822V11.2822H65.1606L64.8692 12.935L66.8389 13.2822ZM75.6777 18.083H77.6777V11.5537L74.0208 16.9629L75.6777 18.083ZM75.4893 18.3389L73.9349 17.0804L77.0421 19.5993L75.4893 18.3389ZM75.6777 18.084L77.3343 19.2046L77.6777 18.6969V18.084H75.6777ZM76.3682 14.0693L74.4816 14.7334L78.2547 13.4053L76.3682 14.0693ZM76.2822 13.8564L78.0945 13.0105L74.4698 14.702L76.2822 13.8564ZM107.046 12.3936L107.256 10.4047L107.218 10.4006L107.179 10.398L107.046 12.3936ZM107.031 12.3926L107.164 10.397L106.824 14.3818L107.031 12.3926ZM107.764 2.85156L107.764 4.85156C113.218 4.85166 117.169 6.65218 119.532 9.6898L121.11 8.46191L122.689 7.23403C119.377 2.97536 114.102 0.851676 107.764 0.851563L107.764 2.85156ZM121.11 8.46191L119.532 9.68974C120.577 11.0344 121.348 12.6609 121.799 14.5672L123.745 14.1064L125.691 13.6457C125.121 11.2345 124.119 9.07284 122.689 7.23409L121.11 8.46191ZM123.745 14.1064L125.715 14.4537L127.574 3.90782L125.604 3.56055L123.635 3.21328L121.775 13.7592L123.745 14.1064ZM125.604 3.56055V5.56055H137.396V3.56055V1.56055H125.604V3.56055ZM137.396 3.56055L135.427 3.21325L131.261 26.8402L133.23 27.1875L135.2 27.5348L139.366 3.90784L137.396 3.56055ZM133.23 27.1875L131.261 26.8402C130.793 29.494 131.012 31.8167 132.219 33.5134L133.849 32.3545L135.479 31.1956C135.164 30.753 134.817 29.7074 135.2 27.5348L133.23 27.1875ZM133.849 32.3545L132.219 33.5135C133.465 35.266 135.505 36.0029 137.894 36.0029L137.894 34.0029L137.894 32.0029C136.294 32.0029 135.723 31.5387 135.479 31.1955L133.849 32.3545ZM137.894 34.0029L137.894 36.0029C140.319 36.0028 142.35 35.2578 143.888 33.8118L142.519 32.3545L141.149 30.8972C140.458 31.5465 139.456 32.0029 137.893 32.0029L137.894 34.0029ZM142.519 32.3545L143.888 33.8117C145.426 32.3666 146.451 30.2419 146.929 27.5348L144.959 27.1875L142.989 26.8402C142.616 28.9596 141.887 30.203 141.149 30.8973L142.519 32.3545ZM144.959 27.1875L146.929 27.5348L151.095 3.90784L149.125 3.56055L147.155 3.21325L142.989 26.8402L144.959 27.1875ZM149.125 3.56055V5.56055H193.26V3.56055V1.56055H149.125V3.56055ZM193.26 3.56055L191.29 3.21329L189.501 13.3608L191.471 13.708L193.44 14.0553L195.229 3.9078L193.26 3.56055ZM191.471 13.708V11.708H180.19V13.708V15.708H191.471V13.708ZM180.19 13.708L178.221 13.3607L173.233 41.6527L175.202 42L177.172 42.3473L182.16 14.0553L180.19 13.708ZM175.202 42V44H342V42V40H175.202V42ZM342 42L340.586 40.5858L304.586 76.5858L306 78L307.414 79.4142L343.414 43.4142L342 42ZM306 78V76H2V78V80H306V78ZM2 78H4V42H2H0V78H2ZM2 42V44H11.4492V42V40H2V42ZM11.4492 42L13.2106 42.9473L33.5319 5.16216L31.7705 4.21484L30.0091 3.26753L9.6878 41.0527L11.4492 42ZM31.7705 4.21484L33.5323 5.16147L33.8839 4.50718L32.1221 3.56055L30.3603 2.61392L30.0087 3.26821L31.7705 4.21484ZM32.1221 3.56055V5.56055H46.1094V3.56055V1.56055H32.1221V3.56055ZM46.1094 3.56055L44.1428 3.92452L44.2639 4.57881L46.2305 4.21484L48.1971 3.85088L48.076 3.19658L46.1094 3.56055ZM46.2305 4.21484L44.2639 4.57898L49.7707 34.3192L51.7373 33.9551L53.7039 33.5909L48.197 3.8507L46.2305 4.21484ZM51.7373 33.9551L53.7069 34.3024L59.0663 3.90784L57.0967 3.56055L55.1271 3.21325L49.7677 33.6078L51.7373 33.9551ZM57.0967 3.56055V5.56055H74.5127V3.56055V1.56055H57.0967V3.56055ZM74.5127 3.56055V5.56055C78.8215 5.56055 81.8228 6.35312 83.5811 7.73403L84.8164 6.16113L86.0517 4.58823C83.2356 2.37651 79.1305 1.56055 74.5127 1.56055V3.56055ZM84.8164 6.16113L83.5811 7.734C85.2063 9.01051 85.9979 10.9828 85.4523 14.0775L87.4219 14.4248L89.3915 14.7721C90.1283 10.5933 89.1049 6.98626 86.0518 4.58826L84.8164 6.16113ZM87.4219 14.4248L85.4523 14.0775C85.4245 14.2348 85.3901 14.3995 85.3497 14.583L87.3027 15.0137L89.2558 15.4444C89.3009 15.24 89.3493 15.0116 89.3915 14.7721L87.4219 14.4248ZM87.3027 15.0137L89.066 15.9575C90.318 13.6187 91.9016 11.6063 93.7627 9.95987L92.4375 8.46191L91.1123 6.96396C88.8795 8.93929 87.0049 11.3321 85.5395 14.0698L87.3027 15.0137ZM92.4375 8.46191L93.7627 9.95989C97.4992 6.65439 102.326 4.85162 107.764 4.85156L107.764 2.85156L107.764 0.851563C101.409 0.85163 95.6239 2.97283 91.1123 6.96394L92.4375 8.46191ZM330 78V76H318V78V80H330V78ZM318 78L319.414 79.4142L355.414 43.4142L354 42L352.586 40.5858L316.586 76.5858L318 78ZM354 42V44H366V42V40H354V42ZM366 42L364.586 40.5858L328.586 76.5858L330 78L331.414 79.4142L367.414 43.4142L366 42ZM354 78V76H342V78V80H354V78ZM342 78L343.414 79.4142L379.414 43.4142L378 42L376.586 40.5858L340.586 76.5858L342 78ZM378 42V44H390V42V40H378V42ZM390 42L388.586 40.5858L352.586 76.5858L354 78L355.414 79.4142L391.414 43.4142L390 42ZM24.2275 42V44H40.209V42V40H24.2275V42ZM40.209 42L42.1895 41.7216L41.3956 36.0732L39.415 36.3516L37.4345 36.6299L38.2285 42.2784L40.209 42ZM39.415 36.3516V34.3516H27.0146V36.3516V38.3516H39.415V36.3516ZM27.0146 36.3516L25.2211 35.4666L22.434 41.115L24.2275 42L26.0211 42.885L28.8082 37.2366L27.0146 36.3516ZM85.0674 35.3047L83.2234 34.5304C82.2782 36.7811 80.7074 38.4366 78.6453 39.5952L79.625 41.3389L80.6047 43.0825C83.378 41.5243 85.5941 39.216 86.9114 36.079L85.0674 35.3047ZM79.625 41.3389L78.6454 39.5952C78.2793 39.8009 77.8936 39.9912 77.4886 40.1693L78.2939 42L79.0992 43.8307C79.6077 43.607 80.1115 43.3596 80.6046 43.0825L79.625 41.3389ZM78.2939 42V44H90.5088V42V40H78.2939V42ZM90.5088 42L91.5718 40.3059C90.4307 39.5899 89.4541 38.7102 88.6493 37.6732L87.0693 38.8994L85.4893 40.1256C86.5889 41.5425 87.9185 42.7359 89.4458 43.6941L90.5088 42ZM87.0693 38.8994L88.6494 37.6733C87.9497 36.7717 87.3759 35.7435 86.9358 34.5911L85.0674 35.3047L83.199 36.0182C83.7709 37.5157 84.5332 38.8935 85.4893 40.1256L87.0693 38.8994ZM108.976 42V44H108.98V42V40H108.976V42ZM108.98 42L109.714 43.8605C109.719 43.8585 109.724 43.8568 109.727 43.8556C109.729 43.8545 109.732 43.8535 109.732 43.8533C109.734 43.8528 109.733 43.8531 109.732 43.8535C109.731 43.854 109.728 43.855 109.725 43.8563L108.99 41.9961L108.256 40.1359C108.251 40.1379 108.246 40.1395 108.244 40.1406C108.241 40.1417 108.239 40.1426 108.238 40.1428C108.237 40.1432 108.238 40.1429 108.239 40.1424C108.241 40.1419 108.243 40.1408 108.247 40.1395L108.98 42ZM108.99 41.9961L109.725 43.8563C109.885 43.7929 110.051 43.726 110.219 43.6552L109.441 41.8125L108.664 39.9698C108.533 40.0251 108.397 40.0799 108.256 40.1359L108.99 41.9961ZM109.441 41.8125L110.856 40.3983L110.855 40.3973L109.44 41.8115L108.026 43.2257L108.027 43.2267L109.441 41.8125ZM109.44 41.8115L108.663 39.9688C108.531 40.0246 108.393 40.0798 108.241 40.1397L108.976 42L109.71 43.8603C109.87 43.7972 110.042 43.7283 110.218 43.6542L109.44 41.8115ZM120.979 32.1543L119.208 31.2249C117.941 33.6381 116.326 35.712 114.418 37.4024L115.744 38.8994L117.07 40.3964C119.359 38.3687 121.269 35.9042 122.749 33.0837L120.979 32.1543ZM115.744 38.8994L114.418 37.4024C113.158 38.5182 111.778 39.4603 110.298 40.2211L111.212 42L112.126 43.7789C113.903 42.8655 115.56 41.7341 117.07 40.3964L115.744 38.8994ZM111.212 42V44H125.582V42V40H111.212V42ZM125.582 42L126.711 40.3489C126.064 39.9067 125.509 39.4002 125.039 38.8281L123.493 40.0977L121.948 41.3672C122.668 42.2439 123.507 43.0042 124.453 43.6511L125.582 42ZM123.493 40.0977L125.039 38.8281C123.731 37.2367 123.01 35.0451 122.978 32.1325L120.979 32.1543L118.979 32.1761C119.017 35.7209 119.907 38.8827 121.948 41.3672L123.493 40.0977ZM156.581 27.3301L154.611 26.9828C153.708 32.1084 151.716 35.9768 148.634 38.5728L149.922 40.1025L151.21 41.6323C155.2 38.2719 157.533 33.448 158.551 27.6774L156.581 27.3301ZM149.922 40.1025L148.634 38.5728C147.881 39.2069 147.064 39.7636 146.183 40.2448L147.142 42L148.1 43.7552C149.209 43.1495 150.248 42.443 151.21 41.6323L149.922 40.1025ZM147.142 42V44H163.362V42V40H147.142V42ZM163.362 42L165.332 42.3473L170.32 14.0553L168.351 13.708L166.381 13.3607L161.393 41.6527L163.362 42ZM168.351 13.708V11.708H158.983V13.708V15.708H168.351V13.708ZM158.983 13.708L157.014 13.3607L154.611 26.9827L156.581 27.3301L158.551 27.6774L160.953 14.0554L158.983 13.708ZM70.0195 34.9902L69.8599 32.9966C69.548 33.0216 69.2167 33.0342 68.8672 33.0342V35.0342V37.0342C69.3119 37.0342 69.7502 37.0182 70.1792 36.9839L70.0195 34.9902ZM68.8672 35.0342V33.0342H62.0039V35.0342V37.0342H68.8672V35.0342ZM62.0039 35.0342H60.0039V35.0352H62.0039H64.0039V35.0342H62.0039ZM62.0039 35.0352V37.0352H68.8672V35.0352V33.0352H62.0039V35.0352ZM68.8672 35.0352V37.0352C69.3144 37.0352 69.753 37.0183 70.1806 36.9837L70.0195 34.9902L69.8584 32.9967C69.5451 33.0221 69.2143 33.0352 68.8672 33.0352V35.0352ZM63.1768 34.0498V36.0498H69.041V34.0498V32.0498H63.1768V34.0498ZM69.041 34.0498V36.0498C70.7208 36.0498 72.3017 35.8302 73.548 35.1236L72.5615 33.3838L71.575 31.644C71.2288 31.8403 70.481 32.0498 69.041 32.0498V34.0498ZM72.5615 33.3838L73.5481 35.1235C74.8092 34.4084 75.6917 33.2114 76.0174 31.3651L74.0479 31.0176L72.0783 30.6701C72.0002 31.1128 71.8879 31.3275 71.8216 31.4255C71.7623 31.513 71.6938 31.5767 71.575 31.644L72.5615 33.3838ZM74.0479 31.0176L76.0175 31.3649C76.1647 30.5299 76.1803 29.7101 75.9624 28.9438C75.7312 28.1309 75.2745 27.5106 74.7056 27.0647L73.4717 28.6387L72.2378 30.2127C72.2232 30.2012 72.192 30.173 72.1611 30.1278C72.1295 30.0818 72.1172 30.0459 72.1149 30.0379C72.114 30.0347 72.1607 30.2029 72.0782 30.6703L74.0479 31.0176ZM73.4717 28.6387L74.705 27.0642C73.5639 26.1703 71.9386 25.9356 70.2637 25.9355L70.2637 27.9355L70.2636 29.9355C70.9674 29.9356 71.4678 29.9912 71.8097 30.0679C72.1579 30.1459 72.2554 30.2265 72.2383 30.2131L73.4717 28.6387ZM70.2637 27.9355V25.9355H64.2549V27.9355V29.9355H70.2637V27.9355ZM64.2549 27.9355L62.2853 27.5882L61.2071 33.7025L63.1768 34.0498L65.1464 34.3971L66.2245 28.2828L64.2549 27.9355ZM105.916 13.3291L105.916 11.3291C103.022 11.3292 100.53 12.4832 98.6126 14.5482L100.078 15.9092L101.544 17.2701C102.739 15.9831 104.183 15.3292 105.916 15.3291L105.916 13.3291ZM100.078 15.9092L98.6125 14.5483C96.6923 16.6162 95.3299 19.612 94.672 23.3431L96.6416 23.6904L98.6112 24.0377C99.1751 20.8396 100.285 18.6261 101.544 17.2701L100.078 15.9092ZM96.6416 23.6904L94.672 23.3432C94.0293 26.9881 94.295 30.1243 95.6116 32.4103L97.3447 31.4121L99.0778 30.4139C98.4208 29.2732 98.0498 27.2221 98.6112 24.0377L96.6416 23.6904ZM97.3447 31.4121L95.6117 32.4104C96.9873 34.7986 99.3562 36.0029 102.271 36.0029V34.0029V32.0029C100.567 32.0029 99.636 31.383 99.0778 30.4138L97.3447 31.4121ZM102.271 34.0029L102.272 36.0029C105.188 36.0027 107.679 34.85 109.59 32.7901L108.124 31.4297L106.658 30.0693C105.475 31.3446 104.034 32.0028 102.271 32.0029L102.271 34.0029ZM108.124 31.4297L109.59 32.79C111.503 30.7278 112.853 27.7446 113.507 24.0378L111.537 23.6904L109.567 23.3431C109.007 26.5216 107.909 28.7213 106.658 30.0694L108.124 31.4297ZM111.537 23.6904L113.507 24.0377C114.153 20.3737 113.903 17.2256 112.595 14.9327L110.857 15.9238L109.12 16.915C109.772 18.058 110.136 20.1217 109.567 23.3431L111.537 23.6904ZM110.857 15.9238L112.595 14.9326C111.225 12.5329 108.853 11.3293 105.916 11.3291L105.916 13.3291L105.916 15.3291C107.65 15.3292 108.572 15.9535 109.12 16.915L110.857 15.9238ZM75.0762 29.3174L77.049 28.9886L77.0441 28.9593L75.0713 29.2881L73.0985 29.6169L73.1034 29.6462L75.0762 29.3174ZM75.0713 29.2881L77.0301 28.8841C77.023 28.85 77.0163 28.8215 77.0114 28.8015C77.0067 28.7822 77.0025 28.7661 77.0011 28.7606C76.9986 28.7511 77.0002 28.757 77.0013 28.7614C77.0029 28.7679 77.0068 28.7834 77.0114 28.8041L75.0596 29.2402L73.1077 29.6764C73.1141 29.705 73.1199 29.7285 73.1236 29.743C73.1255 29.7503 73.1271 29.7566 73.1281 29.7604C73.1286 29.7624 73.129 29.7642 73.1293 29.7653C73.1297 29.7667 73.1298 29.767 73.1299 29.7675C73.1301 29.7684 73.1297 29.7668 73.1291 29.7642C73.1284 29.7615 73.1272 29.7568 73.1257 29.7506C73.1227 29.7386 73.1179 29.7181 73.1125 29.6921L75.0713 29.2881ZM75.0596 29.2402L73.1079 29.6771C73.1095 29.6844 73.1106 29.6891 73.1117 29.6941C73.1127 29.6987 73.1134 29.7019 73.1139 29.7041C73.1149 29.7089 73.1146 29.7078 73.1138 29.7033L75.0762 29.3174L77.0386 28.9315C77.0274 28.8748 77.0154 28.8218 77.0113 28.8034L75.0596 29.2402ZM122.413 27.3301L120.443 26.9828C120.325 27.656 120.23 28.3136 120.158 28.9552L122.146 29.1777L124.133 29.4002C124.195 28.8458 124.278 28.2715 124.383 27.6774L122.413 27.3301ZM122.146 29.1777L124.129 29.435L124.247 28.5238L122.264 28.2666L120.28 28.0094L120.162 28.9205L122.146 29.1777ZM122.264 28.2666L124.243 28.554C124.285 28.2654 124.332 27.9732 124.384 27.6774L122.414 27.3301L120.444 26.9828C120.385 27.3202 120.332 27.6524 120.284 27.9792L122.264 28.2666ZM122.414 27.3301L124.384 27.6774L128.401 4.89221L126.432 4.54492L124.462 4.19763L120.444 26.9828L122.414 27.3301ZM126.432 4.54492V2.54492H126.431V4.54492V6.54492H126.432V4.54492ZM126.431 4.54492L124.461 4.19763L120.443 26.9828L122.413 27.3301L124.383 27.6774L128.4 4.89221L126.431 4.54492ZM84.9355 28.2021H86.9355V28.1982H84.9355H82.9355V28.2021H84.9355ZM84.9355 28.1982L86.8794 27.7277C86.8704 27.6906 86.862 27.6602 86.8563 27.6401C86.8509 27.6213 86.8461 27.6052 86.8454 27.603C86.8446 27.6003 86.845 27.6017 86.8455 27.6032C86.846 27.6051 86.8474 27.6097 86.8491 27.6158C86.8526 27.6276 86.8589 27.65 86.866 27.6789L84.9248 28.1602L82.9836 28.6414C82.9923 28.6767 83.0004 28.7055 83.0056 28.7236C83.0083 28.7329 83.0106 28.7406 83.0121 28.7457C83.0135 28.7503 83.0148 28.7549 83.015 28.7553C83.0154 28.7569 83.0149 28.7551 83.0141 28.7525C83.0133 28.7497 83.0117 28.7442 83.0097 28.7372C83.0058 28.7235 82.9991 28.6995 82.9917 28.6688L84.9355 28.1982ZM84.9248 28.1602L82.9836 28.6414C82.9867 28.6538 82.9894 28.6645 82.9913 28.6718C82.993 28.6784 82.9948 28.6855 82.9952 28.687C82.996 28.6899 82.9958 28.689 82.9952 28.6869C82.9946 28.6845 82.9932 28.679 82.9914 28.6716L84.9355 28.2021L86.8797 27.7327C86.8731 27.7055 86.867 27.6822 86.8652 27.6753C86.8644 27.6724 86.8644 27.6722 86.8639 27.6705C86.8637 27.6695 86.8636 27.6693 86.8637 27.6695C86.8638 27.6698 86.8647 27.6735 86.866 27.6789L84.9248 28.1602ZM31.8818 26.4395V28.4395H38.0469V26.4395V24.4395H31.8818V26.4395ZM38.0469 26.4395L40.0283 26.1676L38.6865 16.3883L36.7051 16.6602L34.7236 16.932L36.0654 26.7113L38.0469 26.4395ZM36.7051 16.6602L34.9114 15.7755L30.0881 25.5548L31.8818 26.4395L33.6755 27.3241L38.4988 17.5448L36.7051 16.6602ZM85.4785 19.2764L83.8354 18.1361C83.6253 18.4389 83.402 18.7247 83.1642 18.9915L84.6572 20.3223L86.1502 21.6531C86.5046 21.2554 86.8272 20.8409 87.1216 20.4166L85.4785 19.2764ZM84.6572 20.3223L83.1643 18.9914C82.4607 19.7807 81.6135 20.448 80.6298 20.992L81.5977 22.7422L82.5655 24.4924C83.9152 23.7461 85.1251 22.803 86.1501 21.6531L84.6572 20.3223ZM81.5977 22.7422L80.7395 24.5487C81.571 24.9437 82.2385 25.4229 82.7543 25.9783L84.2197 24.6172L85.6851 23.2561C84.7732 22.2743 83.6714 21.5131 82.4558 20.9356L81.5977 22.7422ZM84.2197 24.6172L86.1987 24.9067C86.2407 24.6194 86.2873 24.3297 86.3388 24.0377L84.3691 23.6904L82.3995 23.3432C82.3411 23.6744 82.2884 24.0026 82.2408 24.3277L84.2197 24.6172ZM84.3691 23.6904L86.3388 24.0377C86.5939 22.5907 86.9425 21.2118 87.3763 19.9075L85.4785 19.2764L83.5807 18.6452C83.0831 20.1415 82.6874 21.7105 82.3995 23.3431L84.3691 23.6904ZM65.8359 18.9707V20.9707H71.0762V18.9707V16.9707H65.8359V18.9707ZM71.0762 18.9707L71.0762 20.9707C72.7295 20.9707 74.1747 20.7101 75.2811 19.9858L74.1855 18.3125L73.09 16.6392C72.9326 16.7423 72.4061 16.9707 71.0761 16.9707L71.0762 18.9707ZM74.1855 18.3125L75.2813 19.9856C76.3993 19.2535 77.1109 18.0838 77.4032 16.4265L75.4336 16.0791L73.464 15.7318C73.3867 16.1702 73.2836 16.3923 73.2228 16.4936C73.1709 16.58 73.1302 16.6129 73.0898 16.6394L74.1855 18.3125ZM75.4336 16.0791L77.4032 16.4263C77.6759 14.8791 77.4715 13.4116 76.2982 12.4091L74.999 13.9297L73.6998 15.4502C73.6571 15.4138 73.6082 15.3607 73.5669 15.2936C73.526 15.227 73.5105 15.1759 73.5065 15.1597C73.5035 15.1474 73.5132 15.18 73.5127 15.2757C73.5122 15.3722 73.5013 15.5202 73.464 15.7319L75.4336 16.0791ZM74.999 13.9297L76.2979 12.4089C75.2513 11.515 73.7284 11.2822 72.127 11.2822L72.127 13.2822L72.1269 15.2822C72.7899 15.2822 73.2244 15.3374 73.4936 15.4015C73.7666 15.4665 73.7811 15.5197 73.7001 15.4505L74.999 13.9297ZM72.127 13.2822V11.2822H66.8389V13.2822V15.2822H72.127V13.2822ZM66.8389 13.2822L64.8692 12.935L63.8663 18.6234L65.8359 18.9707L67.8056 19.318L68.8085 13.6295L66.8389 13.2822ZM75.6777 18.083L74.0208 16.9629C73.9872 17.0127 73.9588 17.0508 73.9349 17.0804L75.4893 18.3389L77.0437 19.5974C77.1518 19.4638 77.2483 19.3309 77.3346 19.2032L75.6777 18.083ZM75.4893 18.3389L77.0421 19.5993C77.1481 19.4687 77.2452 19.3364 77.3343 19.2046L75.6777 18.084L74.0211 16.9634C73.9905 17.0086 73.9623 17.0465 73.9364 17.0784L75.4893 18.3389ZM75.6777 18.084H77.6777V18.083H75.6777H73.6777V18.084H75.6777ZM76.3682 14.0693L78.2547 13.4052C78.2122 13.2847 78.16 13.1508 78.0945 13.0105L76.2822 13.8564L74.4699 14.7024C74.4683 14.6988 74.4724 14.7072 74.4816 14.7334L76.3682 14.0693ZM76.2822 13.8564L74.4698 14.702C74.4683 14.6989 74.4725 14.7075 74.4816 14.7333L76.3682 14.0693L78.2547 13.4053C78.2121 13.2843 78.1599 13.1507 78.0947 13.0109L76.2822 13.8564ZM107.248 12.4209L107.508 10.4379C107.491 10.4356 107.482 10.4342 107.432 10.427C107.392 10.4213 107.329 10.4123 107.256 10.4047L107.046 12.3936L106.835 14.3824C106.831 14.382 106.835 14.3823 106.863 14.3863C106.869 14.3872 106.876 14.3882 106.885 14.3895C106.893 14.3907 106.903 14.3921 106.913 14.3936C106.933 14.3965 106.959 14.4002 106.988 14.4039L107.248 12.4209ZM107.046 12.3936L107.179 10.398L107.164 10.397L107.031 12.3926L106.898 14.3881L106.913 14.3891L107.046 12.3936ZM107.031 12.3926L106.824 14.3818C106.865 14.3861 106.846 14.3853 106.988 14.4039L107.248 12.4209L107.508 10.4379C107.506 10.4377 107.343 10.4143 107.238 10.4033L107.031 12.3926Z" fill="#00BFFF" mask="url(#path-1-outside-1_578_3568)"/>
<path d="M9 71H283V70H9V71Z" fill="#00BFFF"/>
<path d="M283 71H297L289 63V70H283V71Z" fill="#00BFFF"/>
</svg>
