<svg width="395" height="80" viewBox="0 0 395 80" fill="none" xmlns="http://www.w3.org/2000/svg">
<mask id="path-1-outside-1_0_1" maskUnits="userSpaceOnUse" x="0" y="0.851562" width="395" height="80" fill="black">
<rect fill="white" y="0.851562" width="395" height="80"/>
<path d="M252.466 2.85156C256.563 2.85158 260.221 3.56549 263.113 4.96387L263.36 3.56055H297.76L295.971 13.708H284.69L279.702 42H342L306 78H2V42H23.0342L28.0225 13.708H16.7432L18.5322 3.56055H52.9316L51.1426 13.708H39.8623L34.874 42H51.5693L58.3467 3.56055H70.1875L63.4102 42H80.1279L85.1162 13.708H73.8369L75.626 3.56055H110.025L108.236 13.708H96.9561L91.9678 42H108.663L115.44 3.56055H127.281L121.98 33.625H137.89L143.19 3.56055H172.694L170.905 13.708H153.242L152.439 18.2617H168.087L166.355 28.0781H150.708L149.73 33.625H167.826L166.35 42H178.022L184.8 3.56055H196.641L191.34 33.625H207.852L206.375 42H211.772L218.55 3.56055H230.391L223.613 42H231.598C230.863 41.6331 230.167 41.2299 229.513 40.792L228.965 40.4258L229.242 39.7373L232.744 31.0391L233.33 29.582L234.406 30.4541C236.978 32.534 240.742 34.286 245.579 34.2861C247.218 34.2861 248.305 34.0423 248.971 33.6875C249.544 33.3819 249.851 32.9769 249.963 32.3408C250.079 31.6821 249.805 31.0919 248.767 30.4414C247.714 29.7821 246.122 29.2215 244.124 28.5508L244.116 28.5488L244.11 28.5459C241.666 27.6777 238.796 26.6156 236.733 24.7383C234.617 22.8126 233.362 20.0441 234.095 15.8906C234.748 12.1835 236.619 8.88037 239.771 6.51758C242.907 4.16807 247.171 2.85161 252.466 2.85156ZM330 78H318L354 42H366L330 78ZM354 78H342L378 42H390L354 78ZM250.764 13.0469C249.045 13.0469 247.978 13.3334 247.355 13.6973C246.812 14.015 246.528 14.4341 246.421 15.0391C246.307 15.6825 246.578 16.2504 247.638 16.8896C248.711 17.5366 250.312 18.0837 252.314 18.7812C254.847 19.6304 257.697 20.6931 259.722 22.584C261.798 24.5229 262.979 27.3036 262.249 31.4424C261.577 35.2525 259.747 38.5778 256.562 40.9326C256.041 41.3181 255.488 41.6739 254.902 42H267.862L272.851 13.708H262.202L261.543 15.4648L260.974 16.9844L259.865 16.0713C257.388 14.0315 254.076 13.0469 250.764 13.0469ZM261.117 32.1094C261.07 32.3274 261.019 32.5434 260.963 32.7568C261.019 32.5434 261.071 32.3275 261.118 32.1094H261.117ZM234.201 31.6572C234.292 31.7254 234.387 31.7902 234.48 31.8574C234.381 31.7858 234.281 31.7162 234.184 31.6436L234.201 31.6572ZM242.748 26.9336C243.369 27.1749 243.99 27.399 244.596 27.6143V27.6133C243.98 27.3947 243.349 27.1675 242.719 26.9219L242.748 26.9336ZM247.973 18.2598C248.14 18.3371 248.315 18.4124 248.495 18.4883C248.124 18.332 247.778 18.174 247.463 18.0098L247.973 18.2598ZM260.596 15.2754L263.802 6.72461V6.7207L260.596 15.2754ZM246.786 12.9766C246.742 13.0053 246.7 13.0355 246.658 13.0654C246.704 13.0327 246.751 13.0002 246.799 12.9688L246.786 12.9766Z"/>
</mask>
<path d="M252.466 2.85156C256.563 2.85158 260.221 3.56549 263.113 4.96387L263.36 3.56055H297.76L295.971 13.708H284.69L279.702 42H342L306 78H2V42H23.0342L28.0225 13.708H16.7432L18.5322 3.56055H52.9316L51.1426 13.708H39.8623L34.874 42H51.5693L58.3467 3.56055H70.1875L63.4102 42H80.1279L85.1162 13.708H73.8369L75.626 3.56055H110.025L108.236 13.708H96.9561L91.9678 42H108.663L115.44 3.56055H127.281L121.98 33.625H137.89L143.19 3.56055H172.694L170.905 13.708H153.242L152.439 18.2617H168.087L166.355 28.0781H150.708L149.73 33.625H167.826L166.35 42H178.022L184.8 3.56055H196.641L191.34 33.625H207.852L206.375 42H211.772L218.55 3.56055H230.391L223.613 42H231.598C230.863 41.6331 230.167 41.2299 229.513 40.792L228.965 40.4258L229.242 39.7373L232.744 31.0391L233.33 29.582L234.406 30.4541C236.978 32.534 240.742 34.286 245.579 34.2861C247.218 34.2861 248.305 34.0423 248.971 33.6875C249.544 33.3819 249.851 32.9769 249.963 32.3408C250.079 31.6821 249.805 31.0919 248.767 30.4414C247.714 29.7821 246.122 29.2215 244.124 28.5508L244.116 28.5488L244.11 28.5459C241.666 27.6777 238.796 26.6156 236.733 24.7383C234.617 22.8126 233.362 20.0441 234.095 15.8906C234.748 12.1835 236.619 8.88037 239.771 6.51758C242.907 4.16807 247.171 2.85161 252.466 2.85156ZM330 78H318L354 42H366L330 78ZM354 78H342L378 42H390L354 78ZM250.764 13.0469C249.045 13.0469 247.978 13.3334 247.355 13.6973C246.812 14.015 246.528 14.4341 246.421 15.0391C246.307 15.6825 246.578 16.2504 247.638 16.8896C248.711 17.5366 250.312 18.0837 252.314 18.7812C254.847 19.6304 257.697 20.6931 259.722 22.584C261.798 24.5229 262.979 27.3036 262.249 31.4424C261.577 35.2525 259.747 38.5778 256.562 40.9326C256.041 41.3181 255.488 41.6739 254.902 42H267.862L272.851 13.708H262.202L261.543 15.4648L260.974 16.9844L259.865 16.0713C257.388 14.0315 254.076 13.0469 250.764 13.0469ZM261.117 32.1094C261.07 32.3274 261.019 32.5434 260.963 32.7568C261.019 32.5434 261.071 32.3275 261.118 32.1094H261.117ZM234.201 31.6572C234.292 31.7254 234.387 31.7902 234.48 31.8574C234.381 31.7858 234.281 31.7162 234.184 31.6436L234.201 31.6572ZM242.748 26.9336C243.369 27.1749 243.99 27.399 244.596 27.6143V27.6133C243.98 27.3947 243.349 27.1675 242.719 26.9219L242.748 26.9336ZM247.973 18.2598C248.14 18.3371 248.315 18.4124 248.495 18.4883C248.124 18.332 247.778 18.174 247.463 18.0098L247.973 18.2598ZM260.596 15.2754L263.802 6.72461V6.7207L260.596 15.2754ZM246.786 12.9766C246.742 13.0053 246.7 13.0355 246.658 13.0654C246.704 13.0327 246.751 13.0002 246.799 12.9688L246.786 12.9766Z" fill="#EB6100"/>
<path d="M252.466 2.85156L252.466 0.851562L252.466 0.851563L252.466 2.85156ZM263.113 4.96387L262.243 6.76448L264.624 7.91583L265.083 5.31066L263.113 4.96387ZM263.36 3.56055V1.56055H261.682L261.391 3.21376L263.36 3.56055ZM297.76 3.56055L299.729 3.9078L300.143 1.56055H297.76V3.56055ZM295.971 13.708V15.708H297.649L297.94 14.0553L295.971 13.708ZM284.69 13.708V11.708H283.012L282.721 13.3607L284.69 13.708ZM279.702 42L277.733 41.6527L277.319 44H279.702V42ZM342 42L343.414 43.4142L346.828 40H342V42ZM306 78V80H306.828L307.414 79.4142L306 78ZM2 78H0V80H2V78ZM2 42V40H0V42H2ZM23.0342 42V44H24.7124L25.0038 42.3473L23.0342 42ZM28.0225 13.708L29.9921 14.0553L30.4059 11.708H28.0225V13.708ZM16.7432 13.708L14.7735 13.3608L14.3597 15.708H16.7432V13.708ZM18.5322 3.56055V1.56055H16.854L16.5626 3.21329L18.5322 3.56055ZM52.9316 3.56055L54.9013 3.9078L55.3151 1.56055H52.9316V3.56055ZM51.1426 13.708V15.708H52.8208L53.1122 14.0553L51.1426 13.708ZM39.8623 13.708V11.708H38.1841L37.8927 13.3607L39.8623 13.708ZM34.874 42L32.9044 41.6527L32.4905 44H34.874V42ZM51.5693 42V44H53.2476L53.539 42.3473L51.5693 42ZM58.3467 3.56055V1.56055H56.6685L56.3771 3.21328L58.3467 3.56055ZM70.1875 3.56055L72.1571 3.90781L72.571 1.56055H70.1875V3.56055ZM63.4102 42L61.4405 41.6527L61.0267 44H63.4102V42ZM80.1279 42V44H81.8061L82.0975 42.3473L80.1279 42ZM85.1162 13.708L87.0858 14.0553L87.4997 11.708H85.1162V13.708ZM73.8369 13.708L71.8673 13.3608L71.4535 15.708H73.8369V13.708ZM75.626 3.56055V1.56055H73.9477L73.6564 3.21329L75.626 3.56055ZM110.025 3.56055L111.995 3.9078L112.409 1.56055H110.025V3.56055ZM108.236 13.708V15.708H109.915L110.206 14.0553L108.236 13.708ZM96.9561 13.708V11.708H95.2778L94.9864 13.3607L96.9561 13.708ZM91.9678 42L89.9982 41.6527L89.5843 44H91.9678V42ZM108.663 42V44H110.341L110.633 42.3473L108.663 42ZM115.44 3.56055V1.56055H113.762L113.471 3.21328L115.44 3.56055ZM127.281 3.56055L129.251 3.90782L129.665 1.56055H127.281V3.56055ZM121.98 33.625L120.011 33.2777L119.597 35.625H121.98V33.625ZM137.89 33.625V35.625H139.568L139.859 33.9723L137.89 33.625ZM143.19 3.56055V1.56055H141.512L141.221 3.21328L143.19 3.56055ZM172.694 3.56055L174.664 3.9078L175.078 1.56055H172.694V3.56055ZM170.905 13.708V15.708H172.584L172.875 14.0553L170.905 13.708ZM153.242 13.708V11.708H151.564L151.273 13.3608L153.242 13.708ZM152.439 18.2617L150.47 17.9145L150.056 20.2617H152.439V18.2617ZM168.087 18.2617L170.057 18.6091L170.471 16.2617H168.087V18.2617ZM166.355 28.0781V30.0781H168.034L168.325 28.4255L166.355 28.0781ZM150.708 28.0781V26.0781H149.03L148.738 27.731L150.708 28.0781ZM149.73 33.625L147.761 33.2779L147.347 35.625H149.73V33.625ZM167.826 33.625L169.796 33.9723L170.21 31.625H167.826V33.625ZM166.35 42L164.38 41.6527L163.966 44H166.35V42ZM178.022 42V44H179.701L179.992 42.3473L178.022 42ZM184.8 3.56055V1.56055H183.122L182.83 3.21328L184.8 3.56055ZM196.641 3.56055L198.61 3.90782L199.024 1.56055H196.641V3.56055ZM191.34 33.625L189.37 33.2777L188.956 35.625H191.34V33.625ZM207.852 33.625L209.821 33.9723L210.235 31.625H207.852V33.625ZM206.375 42L204.405 41.6527L203.992 44H206.375V42ZM211.772 42V44H213.451L213.742 42.3473L211.772 42ZM218.55 3.56055V1.56055H216.872L216.58 3.21328L218.55 3.56055ZM230.391 3.56055L232.36 3.90781L232.774 1.56055H230.391V3.56055ZM223.613 42L221.644 41.6527L221.23 44H223.613V42ZM231.598 42V44L232.491 40.2106L231.598 42ZM229.513 40.792L230.625 39.1296L230.624 39.1293L229.513 40.792ZM228.965 40.4258L227.11 39.6785L226.503 41.1856L227.853 42.0885L228.965 40.4258ZM229.242 39.7373L231.097 40.4846L231.097 40.4843L229.242 39.7373ZM232.744 31.0391L234.599 31.786L234.6 31.7853L232.744 31.0391ZM233.33 29.582L234.589 28.0282L232.485 26.323L231.475 28.8358L233.33 29.582ZM234.406 30.4541L233.147 32.008L233.149 32.0092L234.406 30.4541ZM245.579 34.2861L245.579 36.2861L245.579 36.2861L245.579 34.2861ZM248.971 33.6875L249.911 35.4526L249.911 35.4525L248.971 33.6875ZM249.963 32.3408L251.932 32.6883L251.933 32.6881L249.963 32.3408ZM248.767 30.4414L249.828 28.7465L249.828 28.7465L248.767 30.4414ZM244.124 28.5508L244.761 26.6548L244.686 26.6296L244.609 26.6105L244.124 28.5508ZM244.116 28.5488L243.222 30.3377L243.418 30.4359L243.631 30.4891L244.116 28.5488ZM244.11 28.5459L245.005 26.757L244.895 26.7023L244.78 26.6613L244.11 28.5459ZM236.733 24.7383L235.387 26.2175L235.387 26.2175L236.733 24.7383ZM234.095 15.8906L232.125 15.5433L232.125 15.5434L234.095 15.8906ZM239.771 6.51758L238.572 4.91711L238.572 4.91719L239.771 6.51758ZM330 78V80H330.828L331.414 79.4142L330 78ZM318 78L316.586 76.5858L313.172 80H318V78ZM354 42V40H353.172L352.586 40.5858L354 42ZM366 42L367.414 43.4142L370.828 40H366V42ZM354 78V80H354.828L355.414 79.4142L354 78ZM342 78L340.586 76.5858L337.172 80H342V78ZM378 42V40H377.172L376.586 40.5858L378 42ZM390 42L391.414 43.4142L394.828 40H390V42ZM250.764 13.0469L250.764 11.0469L250.764 11.0469L250.764 13.0469ZM247.355 13.6973L246.347 11.9703L246.346 11.9705L247.355 13.6973ZM246.421 15.0391L244.451 14.6915L244.451 14.6918L246.421 15.0391ZM247.638 16.8896L246.605 18.6023L246.605 18.6024L247.638 16.8896ZM252.314 18.7812L251.656 20.6699L251.668 20.6738L251.679 20.6775L252.314 18.7812ZM259.722 22.584L261.087 21.1223L261.087 21.1222L259.722 22.584ZM262.249 31.4424L264.219 31.7897L264.219 31.7897L262.249 31.4424ZM256.562 40.9326L257.751 42.5408L257.752 42.5408L256.562 40.9326ZM254.902 42L253.929 40.2529L247.204 44H254.902V42ZM267.862 42V44H269.541L269.832 42.3473L267.862 42ZM272.851 13.708L274.82 14.0553L275.234 11.708H272.851V13.708ZM262.202 13.708V11.708H260.816L260.33 13.0054L262.202 13.708ZM261.543 15.4648L259.67 14.7623L259.67 14.7631L261.543 15.4648ZM260.974 16.9844L259.702 18.528L261.864 20.3089L262.846 17.6861L260.974 16.9844ZM259.865 16.0713L261.137 14.5276L261.137 14.5274L259.865 16.0713ZM261.117 32.1094V30.1094H259.506L259.163 31.6836L261.117 32.1094ZM260.963 32.7568L259.028 32.251L262.897 33.2647L260.963 32.7568ZM261.118 32.1094L263.072 32.5351L263.601 30.1094H261.118V32.1094ZM234.201 31.6572L232.973 33.2359L232.988 33.2477L233.004 33.2591L234.201 31.6572ZM234.184 31.6436L235.383 30.0432L232.956 33.2223L234.184 31.6436ZM242.748 26.9336L242.005 28.7905L242.014 28.7942L242.023 28.7977L242.748 26.9336ZM244.596 27.6143L243.926 29.4989L246.596 30.4472V27.6143H244.596ZM244.596 27.6133H246.596V26.2013L245.265 25.7287L244.596 27.6133ZM242.719 26.9219L243.445 25.0583L241.976 28.7788L242.719 26.9219ZM247.973 18.2598L247.092 20.0554L247.113 20.0658L247.134 20.0756L247.973 18.2598ZM248.495 18.4883L247.719 20.3316L249.271 16.6449L248.495 18.4883ZM247.463 18.0098L248.344 16.2141L246.539 19.7837L247.463 18.0098ZM260.596 15.2754L258.723 14.5735L262.468 15.9775L260.596 15.2754ZM263.802 6.72461L265.674 7.42676L265.802 7.08723V6.72461H263.802ZM263.802 6.7207H265.802L261.929 6.01883L263.802 6.7207ZM246.786 12.9766L245.738 11.2732L245.715 11.2873L245.693 11.302L246.786 12.9766ZM246.658 13.0654L245.494 11.4396L247.823 14.6916L246.658 13.0654ZM246.799 12.9688L247.891 14.6444L245.751 11.2654L246.799 12.9688ZM252.466 2.85156L252.466 4.85156C256.35 4.85158 259.691 5.53081 262.243 6.76448L263.113 4.96387L263.984 3.16325C260.751 1.60017 256.777 0.851578 252.466 0.851563L252.466 2.85156ZM263.113 4.96387L265.083 5.31066L265.33 3.90734L263.36 3.56055L261.391 3.21376L261.144 4.61708L263.113 4.96387ZM263.36 3.56055V5.56055H297.76V3.56055V1.56055H263.36V3.56055ZM297.76 3.56055L295.79 3.21329L294.001 13.3608L295.971 13.708L297.94 14.0553L299.729 3.9078L297.76 3.56055ZM295.971 13.708V11.708H284.69V13.708V15.708H295.971V13.708ZM284.69 13.708L282.721 13.3607L277.733 41.6527L279.702 42L281.672 42.3473L286.66 14.0553L284.69 13.708ZM279.702 42V44H342V42V40H279.702V42ZM342 42L340.586 40.5858L304.586 76.5858L306 78L307.414 79.4142L343.414 43.4142L342 42ZM306 78V76H2V78V80H306V78ZM2 78H4V42H2H0V78H2ZM2 42V44H23.0342V42V40H2V42ZM23.0342 42L25.0038 42.3473L29.9921 14.0553L28.0225 13.708L26.0528 13.3607L21.0646 41.6527L23.0342 42ZM28.0225 13.708V11.708H16.7432V13.708V15.708H28.0225V13.708ZM16.7432 13.708L18.7128 14.0553L20.5018 3.9078L18.5322 3.56055L16.5626 3.21329L14.7735 13.3608L16.7432 13.708ZM18.5322 3.56055V5.56055H52.9316V3.56055V1.56055H18.5322V3.56055ZM52.9316 3.56055L50.962 3.21329L49.173 13.3608L51.1426 13.708L53.1122 14.0553L54.9013 3.9078L52.9316 3.56055ZM51.1426 13.708V11.708H39.8623V13.708V15.708H51.1426V13.708ZM39.8623 13.708L37.8927 13.3607L32.9044 41.6527L34.874 42L36.8436 42.3473L41.8319 14.0553L39.8623 13.708ZM34.874 42V44H51.5693V42V40H34.874V42ZM51.5693 42L53.539 42.3473L60.3163 3.90781L58.3467 3.56055L56.3771 3.21328L49.5997 41.6527L51.5693 42ZM58.3467 3.56055V5.56055H70.1875V3.56055V1.56055H58.3467V3.56055ZM70.1875 3.56055L68.2179 3.21328L61.4405 41.6527L63.4102 42L65.3798 42.3473L72.1571 3.90781L70.1875 3.56055ZM63.4102 42V44H80.1279V42V40H63.4102V42ZM80.1279 42L82.0975 42.3473L87.0858 14.0553L85.1162 13.708L83.1466 13.3607L78.1583 41.6527L80.1279 42ZM85.1162 13.708V11.708H73.8369V13.708V15.708H85.1162V13.708ZM73.8369 13.708L75.8065 14.0553L77.5956 3.9078L75.626 3.56055L73.6564 3.21329L71.8673 13.3608L73.8369 13.708ZM75.626 3.56055V5.56055H110.025V3.56055V1.56055H75.626V3.56055ZM110.025 3.56055L108.056 3.21329L106.267 13.3608L108.236 13.708L110.206 14.0553L111.995 3.9078L110.025 3.56055ZM108.236 13.708V11.708H96.9561V13.708V15.708H108.236V13.708ZM96.9561 13.708L94.9864 13.3607L89.9982 41.6527L91.9678 42L93.9374 42.3473L98.9257 14.0553L96.9561 13.708ZM91.9678 42V44H108.663V42V40H91.9678V42ZM108.663 42L110.633 42.3473L117.41 3.90781L115.44 3.56055L113.471 3.21328L106.693 41.6527L108.663 42ZM115.44 3.56055V5.56055H127.281V3.56055V1.56055H115.44V3.56055ZM127.281 3.56055L125.312 3.21328L120.011 33.2777L121.98 33.625L123.95 33.9723L129.251 3.90782L127.281 3.56055ZM121.98 33.625V35.625H137.89V33.625V31.625H121.98V33.625ZM137.89 33.625L139.859 33.9723L145.16 3.90782L143.19 3.56055L141.221 3.21328L135.92 33.2777L137.89 33.625ZM143.19 3.56055V5.56055H172.694V3.56055V1.56055H143.19V3.56055ZM172.694 3.56055L170.725 3.21329L168.936 13.3608L170.905 13.708L172.875 14.0553L174.664 3.9078L172.694 3.56055ZM170.905 13.708V11.708H153.242V13.708V15.708H170.905V13.708ZM153.242 13.708L151.273 13.3608L150.47 17.9145L152.439 18.2617L154.409 18.6089L155.212 14.0552L153.242 13.708ZM152.439 18.2617V20.2617H168.087V18.2617V16.2617H152.439V18.2617ZM168.087 18.2617L166.117 17.9143L164.386 27.7307L166.355 28.0781L168.325 28.4255L170.057 18.6091L168.087 18.2617ZM166.355 28.0781V26.0781H150.708V28.0781V30.0781H166.355V28.0781ZM150.708 28.0781L148.738 27.731L147.761 33.2779L149.73 33.625L151.7 33.9721L152.678 28.4252L150.708 28.0781ZM149.73 33.625V35.625H167.826V33.625V31.625H149.73V33.625ZM167.826 33.625L165.857 33.2777L164.38 41.6527L166.35 42L168.319 42.3473L169.796 33.9723L167.826 33.625ZM166.35 42V44H178.022V42V40H166.35V42ZM178.022 42L179.992 42.3473L186.769 3.90781L184.8 3.56055L182.83 3.21328L176.053 41.6527L178.022 42ZM184.8 3.56055V5.56055H196.641V3.56055V1.56055H184.8V3.56055ZM196.641 3.56055L194.671 3.21328L189.37 33.2777L191.34 33.625L193.309 33.9723L198.61 3.90782L196.641 3.56055ZM191.34 33.625V35.625H207.852V33.625V31.625H191.34V33.625ZM207.852 33.625L205.882 33.2777L204.405 41.6527L206.375 42L208.345 42.3473L209.821 33.9723L207.852 33.625ZM206.375 42V44H211.772V42V40H206.375V42ZM211.772 42L213.742 42.3473L220.519 3.90781L218.55 3.56055L216.58 3.21328L209.803 41.6527L211.772 42ZM218.55 3.56055V5.56055H230.391V3.56055V1.56055H218.55V3.56055ZM230.391 3.56055L228.421 3.21328L221.644 41.6527L223.613 42L225.583 42.3473L232.36 3.90781L230.391 3.56055ZM223.613 42V44H231.598V42V40H223.613V42ZM231.598 42L232.491 40.2106C231.829 39.8801 231.207 39.519 230.625 39.1296L229.513 40.792L228.401 42.4543C229.128 42.9407 229.897 43.3862 230.704 43.7894L231.598 42ZM229.513 40.792L230.624 39.1293L230.076 38.763L228.965 40.4258L227.853 42.0885L228.401 42.4547L229.513 40.792ZM228.965 40.4258L230.82 41.1731L231.097 40.4846L229.242 39.7373L227.387 38.99L227.11 39.6785L228.965 40.4258ZM229.242 39.7373L231.097 40.4843L234.599 31.786L232.744 31.0391L230.889 30.2921L227.387 38.9904L229.242 39.7373ZM232.744 31.0391L234.6 31.7853L235.186 30.3282L233.33 29.582L231.475 28.8358L230.889 30.2929L232.744 31.0391ZM233.33 29.582L232.071 31.1359L233.147 32.008L234.406 30.4541L235.665 28.9002L234.589 28.0282L233.33 29.582ZM234.406 30.4541L233.149 32.0092C236.036 34.3446 240.235 36.286 245.579 36.2861L245.579 34.2861L245.579 32.2861C241.248 32.286 237.92 30.7233 235.664 28.899L234.406 30.4541ZM245.579 34.2861L245.579 36.2861C247.365 36.2861 248.83 36.0287 249.911 35.4526L248.971 33.6875L248.03 31.9224C247.78 32.0559 247.07 32.2861 245.579 32.2861L245.579 34.2861ZM248.971 33.6875L249.911 35.4525C250.394 35.1951 250.868 34.8397 251.246 34.3292C251.628 33.8151 251.833 33.2501 251.932 32.6883L249.963 32.3408L247.993 31.9933C247.986 32.0348 247.981 32.0419 247.987 32.0265C247.99 32.0189 247.996 32.007 248.004 31.9924C248.012 31.9776 248.022 31.9622 248.033 31.9469C248.057 31.9146 248.078 31.8955 248.086 31.8894C248.091 31.8848 248.077 31.8973 248.03 31.9225L248.971 33.6875ZM249.963 32.3408L251.933 32.6881C252.064 31.9437 251.973 31.1383 251.52 30.371C251.108 29.6742 250.484 29.1574 249.828 28.7465L248.767 30.4414L247.705 32.1363C247.886 32.2498 247.992 32.3351 248.05 32.3884C248.106 32.4406 248.101 32.4479 248.076 32.4051C248.047 32.3559 248.013 32.2763 247.997 32.1771C247.981 32.0816 247.99 32.0141 247.993 31.9935L249.963 32.3408ZM248.767 30.4414L249.828 28.7465C248.533 27.9352 246.688 27.302 244.761 26.6548L244.124 28.5508L243.488 30.4468C245.556 31.1411 246.895 31.6291 247.705 32.1364L248.767 30.4414ZM244.124 28.5508L244.609 26.6105L244.601 26.6085L244.116 28.5488L243.631 30.4891L243.639 30.4911L244.124 28.5508ZM244.116 28.5488L245.011 26.76L245.005 26.757L244.11 28.5459L243.216 30.3348L243.222 30.3377L244.116 28.5488ZM244.11 28.5459L244.78 26.6613C242.281 25.7736 239.799 24.8239 238.079 23.259L236.733 24.7383L235.387 26.2175C237.794 28.4072 241.052 29.5818 243.441 30.4305L244.11 28.5459ZM236.733 24.7383L238.079 23.2591C236.483 21.8064 235.448 19.7326 236.064 16.2379L234.095 15.8906L232.125 15.5434C231.277 20.3555 232.752 23.8188 235.387 26.2175L236.733 24.7383ZM234.095 15.8906L236.064 16.2379C236.637 12.9908 238.257 10.1523 240.971 8.11796L239.771 6.51758L238.572 4.91719C234.981 7.60843 232.86 11.3762 232.125 15.5433L234.095 15.8906ZM239.771 6.51758L240.971 8.11805C243.684 6.08498 247.498 4.85161 252.466 4.85156L252.466 2.85156L252.466 0.851563C246.845 0.851612 242.13 2.25116 238.572 4.91711L239.771 6.51758ZM330 78V76H318V78V80H330V78ZM318 78L319.414 79.4142L355.414 43.4142L354 42L352.586 40.5858L316.586 76.5858L318 78ZM354 42V44H366V42V40H354V42ZM366 42L364.586 40.5858L328.586 76.5858L330 78L331.414 79.4142L367.414 43.4142L366 42ZM354 78V76H342V78V80H354V78ZM342 78L343.414 79.4142L379.414 43.4142L378 42L376.586 40.5858L340.586 76.5858L342 78ZM378 42V44H390V42V40H378V42ZM390 42L388.586 40.5858L352.586 76.5858L354 78L355.414 79.4142L391.414 43.4142L390 42ZM250.764 13.0469L250.764 11.0469C248.867 11.0469 247.399 11.3555 246.347 11.9703L247.355 13.6973L248.364 15.4242C248.558 15.3112 249.222 15.0469 250.764 15.0469L250.764 13.0469ZM247.355 13.6973L246.346 11.9705C245.288 12.5889 244.659 13.5164 244.451 14.6915L246.421 15.0391L248.39 15.3867C248.398 15.3459 248.403 15.3341 248.4 15.3419C248.399 15.3458 248.395 15.3536 248.39 15.3641C248.384 15.3747 248.377 15.3865 248.369 15.3986C248.36 15.4108 248.352 15.4216 248.344 15.4307C248.336 15.4397 248.33 15.4456 248.326 15.4486C248.32 15.4545 248.329 15.4451 248.365 15.424L247.355 13.6973ZM246.421 15.0391L244.451 14.6918C244.32 15.4341 244.413 16.2443 244.886 17.0135C245.309 17.7024 245.946 18.205 246.605 18.6023L247.638 16.8896L248.671 15.177C248.482 15.0631 248.371 14.978 248.312 14.9254C248.254 14.8737 248.263 14.8692 248.293 14.9184C248.328 14.9749 248.367 15.0648 248.386 15.177C248.404 15.2847 248.395 15.3617 248.391 15.3864L246.421 15.0391ZM247.638 16.8896L246.605 18.6024C247.902 19.3843 249.754 20.007 251.656 20.6699L252.314 18.7812L252.972 16.8926C250.871 16.1604 249.52 15.6889 248.67 15.1769L247.638 16.8896ZM252.314 18.7812L251.679 20.6775C254.237 21.5353 256.688 22.4876 258.357 24.0457L259.722 22.584L261.087 21.1222C258.706 18.8987 255.458 17.7256 252.95 16.885L252.314 18.7812ZM259.722 22.584L258.357 24.0457C259.907 25.4939 260.899 27.5802 260.279 31.0951L262.249 31.4424L264.219 31.7897C265.058 27.0271 263.688 23.5519 261.087 21.1223L259.722 22.584ZM262.249 31.4424L260.279 31.0951C259.684 34.47 258.093 37.3139 255.373 39.3245L256.562 40.9326L257.752 42.5408C261.402 39.8417 263.47 36.035 264.219 31.7897L262.249 31.4424ZM256.562 40.9326L255.374 39.3244C254.923 39.6573 254.442 39.967 253.929 40.2529L254.902 42L255.876 43.7471C256.533 43.3809 257.159 42.979 257.751 42.5408L256.562 40.9326ZM254.902 42V44H267.862V42V40H254.902V42ZM267.862 42L269.832 42.3473L274.82 14.0553L272.851 13.708L270.881 13.3607L265.893 41.6527L267.862 42ZM272.851 13.708V11.708H262.202V13.708V15.708H272.851V13.708ZM262.202 13.708L260.33 13.0054L259.67 14.7623L261.543 15.4648L263.415 16.1674L264.075 14.4106L262.202 13.708ZM261.543 15.4648L259.67 14.7631L259.101 16.2827L260.974 16.9844L262.846 17.6861L263.416 16.1666L261.543 15.4648ZM260.974 16.9844L262.245 15.4407L261.137 14.5276L259.865 16.0713L258.594 17.615L259.702 18.528L260.974 16.9844ZM259.865 16.0713L261.137 14.5274C258.234 12.1376 254.445 11.0469 250.764 11.0469V13.0469V15.0469C253.707 15.0469 256.542 15.9254 258.594 17.6152L259.865 16.0713ZM261.117 32.1094L259.163 31.6836C259.12 31.8794 259.076 32.0683 259.028 32.251L260.963 32.7568L262.898 33.2627C262.962 33.0185 263.019 32.7755 263.071 32.5351L261.117 32.1094ZM260.963 32.7568L262.897 33.2647C262.961 33.0232 263.019 32.7799 263.072 32.5351L261.118 32.1094L259.164 31.6837C259.122 31.8751 259.077 32.0636 259.028 32.2489L260.963 32.7568ZM261.118 32.1094V30.1094H261.117V32.1094V34.1094H261.118V32.1094ZM234.201 31.6572L233.004 33.2591C233.113 33.3407 233.269 33.4496 233.315 33.4826L234.48 31.8574L235.646 30.2322C235.505 30.1308 235.472 30.11 235.399 30.0553L234.201 31.6572ZM234.48 31.8574L235.646 30.2322C235.514 30.1375 235.458 30.0994 235.383 30.0432L234.184 31.6436L232.984 33.2439C233.103 33.333 233.247 33.4342 233.315 33.4826L234.48 31.8574ZM234.184 31.6436L232.956 33.2223L232.973 33.2359L234.201 31.6572L235.429 30.0785L235.411 30.0649L234.184 31.6436ZM242.748 26.9336L242.023 28.7977C242.672 29.05 243.316 29.282 243.926 29.4989L244.596 27.6143L245.265 25.7296C244.664 25.5161 244.065 25.2998 243.473 25.0695L242.748 26.9336ZM244.596 27.6143H246.596V27.6133H244.596H242.596V27.6143H244.596ZM244.596 27.6133L245.265 25.7287C244.653 25.5112 244.046 25.2924 243.445 25.0583L242.719 26.9219L241.993 28.7855C242.653 29.0426 243.308 29.2782 243.926 29.4979L244.596 27.6133ZM242.719 26.9219L241.976 28.7788L242.005 28.7905L242.748 26.9336L243.491 25.0766L243.462 25.0649L242.719 26.9219ZM247.973 18.2598L247.134 20.0756C247.332 20.1668 247.53 20.2522 247.719 20.3316L248.495 18.4883L249.271 16.6449C249.099 16.5726 248.948 16.5074 248.811 16.4439L247.973 18.2598ZM248.495 18.4883L249.271 16.6449C248.933 16.5025 248.64 16.3676 248.387 16.2359L247.463 18.0098L246.539 19.7837C246.917 19.9804 247.315 20.1615 247.719 20.3316L248.495 18.4883ZM247.463 18.0098L246.582 19.8054L247.092 20.0554L247.973 18.2598L248.853 16.4641L248.344 16.2141L247.463 18.0098ZM260.596 15.2754L262.468 15.9775L265.674 7.42676L263.802 6.72461L261.929 6.02246L258.723 14.5732L260.596 15.2754ZM263.802 6.72461H265.802V6.7207H263.802H261.802V6.72461H263.802ZM263.802 6.7207L261.929 6.01883L258.723 14.5735L260.596 15.2754L262.469 15.9773L265.675 7.42258L263.802 6.7207ZM246.786 12.9766L245.693 11.302C245.607 11.3582 245.53 11.4137 245.494 11.4396L246.658 13.0654L247.823 14.6913C247.845 14.6753 247.857 14.6666 247.868 14.6589C247.878 14.652 247.881 14.6502 247.88 14.6511L246.786 12.9766ZM246.658 13.0654L247.823 14.6916C247.855 14.6684 247.876 14.6541 247.891 14.6444L246.799 12.9688L245.707 11.2931C245.625 11.3463 245.553 11.397 245.494 11.4393L246.658 13.0654ZM246.799 12.9688L245.751 11.2654L245.738 11.2732L246.786 12.9766L247.834 14.6799L247.847 14.6721L246.799 12.9688Z" fill="#FFFFFF" mask="url(#path-1-outside-1_0_1)"/>
<path d="M9 71H283V70H9V71Z" fill="#FFFFFF"/>
<path d="M283 71H297L289 63V70H283V71Z" fill="#FFFFFF"/>
</svg>
