<svg width="395" height="80" viewBox="0 0 395 80" fill="none" xmlns="http://www.w3.org/2000/svg">
<mask id="path-1-outside-1_0_1" maskUnits="userSpaceOnUse" x="0" y="0.851562" width="395" height="80" fill="black">
<rect fill="white" y="0.851562" width="395" height="80"/>
<path d="M218.539 2.85156C223.767 2.85156 227.511 4.18922 229.963 5.99219L230.392 3.56055H293.71L291.921 13.708H274.258L273.455 18.2617H289.103L287.371 28.0781H271.724L270.746 33.625H288.842L287.365 42H292.319L299.097 3.56055H315.649C320.911 3.5606 324.902 4.69611 327.371 7.0752C329.867 9.48016 330.676 13.0267 329.888 17.4971C329.298 20.842 327.956 23.477 326.167 25.5195C324.704 27.1899 322.975 28.4239 321.196 29.3281L328.437 42H342L306 78H2V42H22.4473C21.0801 41.1848 19.9022 40.1785 18.9297 38.9844C15.9724 35.3531 15.0015 30.1181 16.1348 23.6904C17.2879 17.1509 20.26 11.9134 24.5908 8.31152C28.9187 4.71239 34.4767 2.85162 40.6328 2.85156C46.2948 2.85156 50.2177 4.41821 52.6426 6.44824L52.7441 6.53418L53.2686 3.56055H65.1094L62.5752 17.9316H74.2549L76.7891 3.56055H88.5811L82.2432 39.5068L101.224 4.21484L101.575 3.56055H115.562L115.684 4.21484L122.215 39.4873L128.55 3.56055H145.103C150.364 3.5606 154.355 4.69611 156.824 7.0752C159.32 9.48016 160.129 13.0267 159.341 17.4971C158.751 20.842 157.409 23.477 155.62 25.5195C154.157 27.1899 152.429 28.4239 150.649 29.3281L156.318 39.25L175.161 4.21484L175.513 3.56055H189.5L189.621 4.21484L193.697 26.2305C193.774 25.4062 193.888 24.5593 194.041 23.6904C195.194 17.1509 198.166 11.9134 202.497 8.31152C206.825 4.71239 212.383 2.85162 218.539 2.85156ZM330 78H318L354 42H366L330 78ZM354 78H342L378 42H390L354 78ZM46.7168 40.7178C46.0164 41.1698 45.2581 41.599 44.4443 42H46.4912L46.7168 40.7178ZM58.332 42H70.0117L72.4248 28.3154H60.7451L58.332 42ZM93.6807 42H109.662L108.868 36.3516H96.4678L93.6807 42ZM132.612 42H132.613L134.608 30.6865H134.607L132.612 42ZM133.613 42H143.729L138.463 31.6709H135.435L133.613 42ZM167.618 42H183.6L182.806 36.3516H170.405L167.618 42ZM196.617 42H200.354C198.986 41.1848 197.808 40.1785 196.836 38.9844C196.45 38.5103 196.098 38.0083 195.78 37.4805L196.617 42ZM227.426 16.2705L226.759 18.0391L225.661 16.7891C223.693 14.5503 220.986 13.3292 217.556 13.3291C214.535 13.3292 212.038 14.3498 210.16 16.0801C208.268 17.8239 206.894 20.3929 206.321 23.6426C205.703 27.1492 206.334 29.7224 207.699 31.4131C209.065 33.1046 211.239 34.0029 213.911 34.0029C217.901 34.0028 221.447 32.3224 223.667 30.4229L225.196 29.1143L225.274 30.9033L225.646 39.4111L225.673 40.0127L225.115 40.3936C224.284 40.9617 223.368 41.5051 222.364 42H234.894L239.882 13.708H228.603L228.787 12.6631L227.426 16.2705ZM246.733 42H257.429L262.417 13.708H251.722L246.733 42ZM303.159 42H303.16L305.155 30.6865H305.154L303.159 42ZM304.16 42H314.276L309.01 31.6709H305.981L304.16 42ZM49.5195 16.2705L48.8525 18.0391L47.7549 16.7891C45.7872 14.5503 43.0801 13.3292 39.6494 13.3291C36.629 13.3292 34.1314 14.3498 32.2539 16.0801C30.3618 17.8239 28.9881 20.3929 28.415 23.6426C27.7968 27.1492 28.4275 29.7224 29.793 31.4131C31.1592 33.1046 33.3332 34.0029 36.0049 34.0029C39.9945 34.0028 43.5408 32.3224 45.7607 30.4229L47.29 29.1143L47.3682 30.9033L47.583 35.8066L52.3506 8.7666L49.5195 16.2705ZM101.335 26.4395H107.5L106.158 16.6602L101.335 26.4395ZM175.272 26.4395H181.438L180.096 16.6602L175.272 26.4395ZM137.132 22.0439H141.508C142.631 22.0439 143.957 21.8216 145.047 21.1807C146.064 20.5821 146.995 19.5511 147.332 17.6396C147.633 15.9331 147.225 14.9822 146.471 14.4043C145.65 13.7757 144.27 13.4717 142.347 13.4717H138.644L137.132 22.0439ZM307.679 22.0439H312.055C313.178 22.0439 314.504 21.8216 315.594 21.1807C316.611 20.5821 317.542 19.5511 317.879 17.6396C318.18 15.9331 317.772 14.9822 317.018 14.4043C316.197 13.7757 314.817 13.4717 312.894 13.4717H309.19L307.679 22.0439ZM148.133 18.4893C148.138 18.47 148.146 18.4511 148.151 18.4316L148.154 18.4199C148.148 18.4433 148.14 18.4661 148.133 18.4893ZM318.68 18.4893C318.685 18.47 318.693 18.4511 318.698 18.4316L318.701 18.4199C318.695 18.4433 318.686 18.4661 318.68 18.4893ZM137.817 12.4873H142.521C142.769 12.4873 143.012 12.492 143.249 12.502H143.25C143.013 12.492 142.77 12.4863 142.521 12.4863H137.816L137.817 12.4873ZM308.364 12.4873H313.067C313.316 12.4873 313.559 12.492 313.796 12.502H313.797C313.56 12.492 313.316 12.4863 313.067 12.4863H308.363L308.364 12.4873ZM40.167 12.3496C40.3828 12.3545 40.5961 12.363 40.8066 12.377C40.5961 12.3627 40.3829 12.3535 40.167 12.3486L39.8232 12.3447L40.167 12.3496ZM218.073 12.3496C218.289 12.3545 218.502 12.363 218.713 12.377C218.502 12.3627 218.289 12.3535 218.073 12.3486L217.729 12.3447L218.073 12.3496Z"/>
</mask>
<path d="M218.539 2.85156C223.767 2.85156 227.511 4.18922 229.963 5.99219L230.392 3.56055H293.71L291.921 13.708H274.258L273.455 18.2617H289.103L287.371 28.0781H271.724L270.746 33.625H288.842L287.365 42H292.319L299.097 3.56055H315.649C320.911 3.5606 324.902 4.69611 327.371 7.0752C329.867 9.48016 330.676 13.0267 329.888 17.4971C329.298 20.842 327.956 23.477 326.167 25.5195C324.704 27.1899 322.975 28.4239 321.196 29.3281L328.437 42H342L306 78H2V42H22.4473C21.0801 41.1848 19.9022 40.1785 18.9297 38.9844C15.9724 35.3531 15.0015 30.1181 16.1348 23.6904C17.2879 17.1509 20.26 11.9134 24.5908 8.31152C28.9187 4.71239 34.4767 2.85162 40.6328 2.85156C46.2948 2.85156 50.2177 4.41821 52.6426 6.44824L52.7441 6.53418L53.2686 3.56055H65.1094L62.5752 17.9316H74.2549L76.7891 3.56055H88.5811L82.2432 39.5068L101.224 4.21484L101.575 3.56055H115.562L115.684 4.21484L122.215 39.4873L128.55 3.56055H145.103C150.364 3.5606 154.355 4.69611 156.824 7.0752C159.32 9.48016 160.129 13.0267 159.341 17.4971C158.751 20.842 157.409 23.477 155.62 25.5195C154.157 27.1899 152.429 28.4239 150.649 29.3281L156.318 39.25L175.161 4.21484L175.513 3.56055H189.5L189.621 4.21484L193.697 26.2305C193.774 25.4062 193.888 24.5593 194.041 23.6904C195.194 17.1509 198.166 11.9134 202.497 8.31152C206.825 4.71239 212.383 2.85162 218.539 2.85156ZM330 78H318L354 42H366L330 78ZM354 78H342L378 42H390L354 78ZM46.7168 40.7178C46.0164 41.1698 45.2581 41.599 44.4443 42H46.4912L46.7168 40.7178ZM58.332 42H70.0117L72.4248 28.3154H60.7451L58.332 42ZM93.6807 42H109.662L108.868 36.3516H96.4678L93.6807 42ZM132.612 42H132.613L134.608 30.6865H134.607L132.612 42ZM133.613 42H143.729L138.463 31.6709H135.435L133.613 42ZM167.618 42H183.6L182.806 36.3516H170.405L167.618 42ZM196.617 42H200.354C198.986 41.1848 197.808 40.1785 196.836 38.9844C196.45 38.5103 196.098 38.0083 195.78 37.4805L196.617 42ZM227.426 16.2705L226.759 18.0391L225.661 16.7891C223.693 14.5503 220.986 13.3292 217.556 13.3291C214.535 13.3292 212.038 14.3498 210.16 16.0801C208.268 17.8239 206.894 20.3929 206.321 23.6426C205.703 27.1492 206.334 29.7224 207.699 31.4131C209.065 33.1046 211.239 34.0029 213.911 34.0029C217.901 34.0028 221.447 32.3224 223.667 30.4229L225.196 29.1143L225.274 30.9033L225.646 39.4111L225.673 40.0127L225.115 40.3936C224.284 40.9617 223.368 41.5051 222.364 42H234.894L239.882 13.708H228.603L228.787 12.6631L227.426 16.2705ZM246.733 42H257.429L262.417 13.708H251.722L246.733 42ZM303.159 42H303.16L305.155 30.6865H305.154L303.159 42ZM304.16 42H314.276L309.01 31.6709H305.981L304.16 42ZM49.5195 16.2705L48.8525 18.0391L47.7549 16.7891C45.7872 14.5503 43.0801 13.3292 39.6494 13.3291C36.629 13.3292 34.1314 14.3498 32.2539 16.0801C30.3618 17.8239 28.9881 20.3929 28.415 23.6426C27.7968 27.1492 28.4275 29.7224 29.793 31.4131C31.1592 33.1046 33.3332 34.0029 36.0049 34.0029C39.9945 34.0028 43.5408 32.3224 45.7607 30.4229L47.29 29.1143L47.3682 30.9033L47.583 35.8066L52.3506 8.7666L49.5195 16.2705ZM101.335 26.4395H107.5L106.158 16.6602L101.335 26.4395ZM175.272 26.4395H181.438L180.096 16.6602L175.272 26.4395ZM137.132 22.0439H141.508C142.631 22.0439 143.957 21.8216 145.047 21.1807C146.064 20.5821 146.995 19.5511 147.332 17.6396C147.633 15.9331 147.225 14.9822 146.471 14.4043C145.65 13.7757 144.27 13.4717 142.347 13.4717H138.644L137.132 22.0439ZM307.679 22.0439H312.055C313.178 22.0439 314.504 21.8216 315.594 21.1807C316.611 20.5821 317.542 19.5511 317.879 17.6396C318.18 15.9331 317.772 14.9822 317.018 14.4043C316.197 13.7757 314.817 13.4717 312.894 13.4717H309.19L307.679 22.0439ZM148.133 18.4893C148.138 18.47 148.146 18.4511 148.151 18.4316L148.154 18.4199C148.148 18.4433 148.14 18.4661 148.133 18.4893ZM318.68 18.4893C318.685 18.47 318.693 18.4511 318.698 18.4316L318.701 18.4199C318.695 18.4433 318.686 18.4661 318.68 18.4893ZM137.817 12.4873H142.521C142.769 12.4873 143.012 12.492 143.249 12.502H143.25C143.013 12.492 142.77 12.4863 142.521 12.4863H137.816L137.817 12.4873ZM308.364 12.4873H313.067C313.316 12.4873 313.559 12.492 313.796 12.502H313.797C313.56 12.492 313.316 12.4863 313.067 12.4863H308.363L308.364 12.4873ZM40.167 12.3496C40.3828 12.3545 40.5961 12.363 40.8066 12.377C40.5961 12.3627 40.3829 12.3535 40.167 12.3486L39.8232 12.3447L40.167 12.3496ZM218.073 12.3496C218.289 12.3545 218.502 12.363 218.713 12.377C218.502 12.3627 218.289 12.3535 218.073 12.3486L217.729 12.3447L218.073 12.3496Z" fill="#EB6100"/>
<path d="M218.539 2.85156L218.539 0.851562L218.539 0.851563L218.539 2.85156ZM229.963 5.99219L228.778 7.60354L231.373 9.51151L231.933 6.33944L229.963 5.99219ZM230.392 3.56055V1.56055H228.713L228.422 3.21329L230.392 3.56055ZM293.71 3.56055L295.68 3.9078L296.093 1.56055H293.71V3.56055ZM291.921 13.708V15.708H293.599L293.891 14.0553L291.921 13.708ZM274.258 13.708V11.708H272.58L272.288 13.3608L274.258 13.708ZM273.455 18.2617L271.485 17.9145L271.072 20.2617H273.455V18.2617ZM289.103 18.2617L291.072 18.6091L291.486 16.2617H289.103V18.2617ZM287.371 28.0781V30.0781H289.049L289.341 28.4255L287.371 28.0781ZM271.724 28.0781V26.0781H270.045L269.754 27.731L271.724 28.0781ZM270.746 33.625L268.776 33.2779L268.363 35.625H270.746V33.625ZM288.842 33.625L290.811 33.9723L291.225 31.625H288.842V33.625ZM287.365 42L285.396 41.6527L284.982 44H287.365V42ZM292.319 42V44H293.998L294.289 42.3473L292.319 42ZM299.097 3.56055V1.56055H297.418L297.127 3.21328L299.097 3.56055ZM315.649 3.56055L315.649 1.56055H315.649V3.56055ZM327.371 7.0752L328.759 5.63505L328.759 5.63498L327.371 7.0752ZM329.888 17.4971L331.857 17.8444L331.857 17.8443L329.888 17.4971ZM326.167 25.5195L327.671 26.8373L327.672 26.8372L326.167 25.5195ZM321.196 29.3281L320.29 27.5452L318.418 28.4967L319.46 30.3203L321.196 29.3281ZM328.437 42L326.7 42.9922L327.276 44H328.437V42ZM342 42L343.414 43.4142L346.828 40H342V42ZM306 78V80H306.828L307.414 79.4142L306 78ZM2 78H0V80H2V78ZM2 42V40H0V42H2ZM22.4473 42V44H29.7071L23.4715 40.2822L22.4473 42ZM18.9297 38.9844L17.3789 40.2473L17.3789 40.2474L18.9297 38.9844ZM16.1348 23.6904L14.1652 23.3431L14.1651 23.3432L16.1348 23.6904ZM24.5908 8.31152L23.312 6.77379L23.312 6.77382L24.5908 8.31152ZM40.6328 2.85156L40.6328 0.851562L40.6328 0.851563L40.6328 2.85156ZM52.6426 6.44824L53.9345 4.92145L53.9264 4.9147L52.6426 6.44824ZM52.7441 6.53418L51.4523 8.06095L54.1093 10.3092L54.7137 6.88153L52.7441 6.53418ZM53.2686 3.56055V1.56055H51.5904L51.2989 3.2132L53.2686 3.56055ZM65.1094 3.56055L67.079 3.90787L67.4929 1.56055H65.1094V3.56055ZM62.5752 17.9316L60.6056 17.5843L60.1917 19.9316H62.5752V17.9316ZM74.2549 17.9316V19.9316H75.9331L76.2245 18.279L74.2549 17.9316ZM76.7891 3.56055V1.56055H75.1109L74.8195 3.21323L76.7891 3.56055ZM88.5811 3.56055L90.5507 3.90782L90.9645 1.56055H88.5811V3.56055ZM82.2432 39.5068L80.2735 39.1596L84.0046 40.4541L82.2432 39.5068ZM101.224 4.21484L102.985 5.16216L102.985 5.16147L101.224 4.21484ZM101.575 3.56055V1.56055H100.379L99.8134 2.61392L101.575 3.56055ZM115.562 3.56055L117.529 3.19658L117.226 1.56055H115.562V3.56055ZM115.684 4.21484L113.717 4.57881L113.717 4.57899L115.684 4.21484ZM122.215 39.4873L120.248 39.8514L124.184 39.8346L122.215 39.4873ZM128.55 3.56055V1.56055H126.872L126.58 3.21324L128.55 3.56055ZM145.103 3.56055L145.103 1.56055H145.103V3.56055ZM156.824 7.0752L158.212 5.63505L158.212 5.63498L156.824 7.0752ZM159.341 17.4971L161.31 17.8444L161.31 17.8443L159.341 17.4971ZM155.62 25.5195L157.125 26.8373L157.125 26.8372L155.62 25.5195ZM150.649 29.3281L149.743 27.5452L147.871 28.4967L148.913 30.3203L150.649 29.3281ZM156.318 39.25L154.582 40.2422L156.371 43.3741L158.08 40.1973L156.318 39.25ZM175.161 4.21484L176.923 5.16217L176.923 5.16147L175.161 4.21484ZM175.513 3.56055V1.56055H174.317L173.751 2.61392L175.513 3.56055ZM189.5 3.56055L191.467 3.19658L191.164 1.56055H189.5V3.56055ZM189.621 4.21484L187.654 4.57881L187.655 4.57895L189.621 4.21484ZM193.697 26.2305L191.731 26.5946L195.689 26.4155L193.697 26.2305ZM194.041 23.6904L192.071 23.3431L192.071 23.3432L194.041 23.6904ZM202.497 8.31152L201.218 6.77379L201.218 6.77382L202.497 8.31152ZM330 78V80H330.828L331.414 79.4142L330 78ZM318 78L316.586 76.5858L313.172 80H318V78ZM354 42V40H353.172L352.586 40.5858L354 42ZM366 42L367.414 43.4142L370.828 40H366V42ZM354 78V80H354.828L355.414 79.4142L354 78ZM342 78L340.586 76.5858L337.172 80H342V78ZM378 42V40H377.172L376.586 40.5858L378 42ZM390 42L391.414 43.4142L394.828 40H390V42ZM46.7168 40.7178L48.6865 41.0643L49.48 36.5542L45.6323 39.0373L46.7168 40.7178ZM44.4443 42L43.5603 40.206L44.4443 44V42ZM46.4912 42V44H48.1701L48.461 42.3465L46.4912 42ZM58.332 42L56.3624 41.6527L55.9485 44H58.332V42ZM70.0117 42V44H71.6899L71.9813 42.3473L70.0117 42ZM72.4248 28.3154L74.3944 28.6627L74.8083 26.3154H72.4248V28.3154ZM60.7451 28.3154V26.3154H59.0669L58.7755 27.9681L60.7451 28.3154ZM93.6807 42L91.8871 41.115L90.4636 44H93.6807V42ZM109.662 42V44H111.963L111.643 41.7216L109.662 42ZM108.868 36.3516L110.849 36.0732L110.607 34.3516H108.868V36.3516ZM96.4678 36.3516V34.3516H95.2244L94.6742 35.4666L96.4678 36.3516ZM132.612 42L130.643 41.6527L130.229 44H132.612V42ZM132.613 42V44H134.291L134.583 42.3473L132.613 42ZM134.608 30.6865L136.578 31.0339L136.992 28.6865H134.608V30.6865ZM134.607 30.6865V28.6865H132.929L132.638 30.3392L134.607 30.6865ZM133.613 42L131.644 41.6527L131.23 44H133.613V42ZM143.729 42V44H146.994L145.511 41.0915L143.729 42ZM138.463 31.6709L140.245 30.7624L139.688 29.6709H138.463V31.6709ZM135.435 31.6709V29.6709H133.756L133.465 31.3236L135.435 31.6709ZM167.618 42L165.825 41.115L164.401 44H167.618V42ZM183.6 42V44H185.9L185.58 41.7216L183.6 42ZM182.806 36.3516L184.786 36.0732L184.544 34.3516H182.806V36.3516ZM170.405 36.3516V34.3516H169.162L168.612 35.4666L170.405 36.3516ZM196.617 42L194.651 42.3642L194.954 44H196.617V42ZM200.354 42V44H207.613L201.378 40.2822L200.354 42ZM196.836 38.9844L195.285 40.2473L195.285 40.2474L196.836 38.9844ZM195.78 37.4805L197.493 36.4481L193.814 37.8446L195.78 37.4805ZM227.426 16.2705L225.555 15.5644L225.554 15.5648L227.426 16.2705ZM226.759 18.0391L225.256 19.3587L227.454 21.8623L228.63 18.7448L226.759 18.0391ZM225.661 16.7891L227.164 15.4694L227.163 15.4687L225.661 16.7891ZM217.556 13.3291L217.556 11.3291L217.556 11.3291L217.556 13.3291ZM210.16 16.0801L208.805 14.6094L208.805 14.6094L210.16 16.0801ZM206.321 23.6426L204.352 23.2953L204.352 23.2953L206.321 23.6426ZM207.699 31.4131L206.143 32.6697L206.143 32.6698L207.699 31.4131ZM213.911 34.0029L213.911 36.0029L213.911 36.0029L213.911 34.0029ZM223.667 30.4229L224.967 31.9425L224.967 31.9425L223.667 30.4229ZM225.196 29.1143L227.194 29.027L227.015 24.9255L223.896 27.5946L225.196 29.1143ZM225.274 30.9033L223.276 30.9906L223.276 30.9907L225.274 30.9033ZM225.646 39.4111L223.648 39.4985L223.648 39.4987L225.646 39.4111ZM225.673 40.0127L226.801 41.6642L227.72 41.0367L227.671 39.9251L225.673 40.0127ZM225.115 40.3936L223.987 38.742L223.986 38.7426L225.115 40.3936ZM222.364 42L221.48 40.2063L222.364 44V42ZM234.894 42V44H236.572L236.863 42.3473L234.894 42ZM239.882 13.708L241.851 14.0553L242.265 11.708H239.882V13.708ZM228.603 13.708L226.633 13.3601L226.218 15.708H228.603V13.708ZM228.787 12.6631L230.757 13.011L226.916 11.957L228.787 12.6631ZM246.733 42L244.764 41.6527L244.35 44H246.733V42ZM257.429 42V44H259.107L259.398 42.3473L257.429 42ZM262.417 13.708L264.387 14.0553L264.8 11.708H262.417V13.708ZM251.722 13.708V11.708H250.043L249.752 13.3607L251.722 13.708ZM303.159 42L301.19 41.6527L300.776 44H303.159V42ZM303.16 42V44H304.838L305.13 42.3473L303.16 42ZM305.155 30.6865L307.125 31.0339L307.539 28.6865H305.155V30.6865ZM305.154 30.6865V28.6865H303.476L303.185 30.3392L305.154 30.6865ZM304.16 42L302.191 41.6527L301.777 44H304.16V42ZM314.276 42V44H317.541L316.058 41.0915L314.276 42ZM309.01 31.6709L310.792 30.7624L310.235 29.6709H309.01V31.6709ZM305.981 31.6709V29.6709H304.303L304.012 31.3236L305.981 31.6709ZM49.5195 16.2705L47.6483 15.5645L47.6482 15.5648L49.5195 16.2705ZM48.8525 18.0391L47.3497 19.3587L49.5482 21.8623L50.7239 18.7448L48.8525 18.0391ZM47.7549 16.7891L49.2577 15.4694L49.2571 15.4687L47.7549 16.7891ZM39.6494 13.3291L39.6494 11.3291L39.6494 11.3291L39.6494 13.3291ZM32.2539 16.0801L30.8985 14.6094L30.8985 14.6094L32.2539 16.0801ZM28.415 23.6426L26.4454 23.2953L26.4454 23.2953L28.415 23.6426ZM29.793 31.4131L28.237 32.6697L28.2371 32.6698L29.793 31.4131ZM36.0049 34.0029L36.0049 36.0029L36.005 36.0029L36.0049 34.0029ZM45.7607 30.4229L47.061 31.9425L47.061 31.9425L45.7607 30.4229ZM47.29 29.1143L49.2881 29.027L49.109 24.9255L45.9897 27.5946L47.29 29.1143ZM47.3682 30.9033L45.3701 30.9906L45.3701 30.9909L47.3682 30.9033ZM47.583 35.8066L45.5849 35.8942L49.5526 36.1539L47.583 35.8066ZM52.3506 8.7666L54.3202 9.11388L50.4793 8.06062L52.3506 8.7666ZM101.335 26.4395L99.5413 25.5548L98.1185 28.4395H101.335V26.4395ZM107.5 26.4395V28.4395H109.793L109.481 26.1676L107.5 26.4395ZM106.158 16.6602L108.14 16.3883L107.252 9.92055L104.365 15.7755L106.158 16.6602ZM175.272 26.4395L173.479 25.5548L172.056 28.4395H175.272V26.4395ZM181.438 26.4395V28.4395H183.731L183.419 26.1676L181.438 26.4395ZM180.096 16.6602L182.077 16.3883L181.19 9.92055L178.302 15.7755L180.096 16.6602ZM137.132 22.0439L135.162 21.6966L134.748 24.0439H137.132V22.0439ZM141.508 22.0439L141.508 24.0439L141.508 24.0439L141.508 22.0439ZM145.047 21.1807L146.061 22.9045L146.061 22.9043L145.047 21.1807ZM147.332 17.6396L149.302 17.9871L149.302 17.9869L147.332 17.6396ZM146.471 14.4043L147.687 12.8167L147.687 12.8164L146.471 14.4043ZM142.347 13.4717L142.347 11.4717H142.347V13.4717ZM138.644 13.4717V11.4717H136.965L136.674 13.1243L138.644 13.4717ZM307.679 22.0439L305.709 21.6966L305.295 24.0439H307.679V22.0439ZM312.055 22.0439L312.055 24.0439L312.055 24.0439L312.055 22.0439ZM315.594 21.1807L316.608 22.9045L316.608 22.9043L315.594 21.1807ZM317.879 17.6396L319.848 17.9871L319.849 17.9869L317.879 17.6396ZM317.018 14.4043L318.234 12.8167L318.234 12.8164L317.018 14.4043ZM312.894 13.4717L312.894 11.4717H312.894V13.4717ZM309.19 13.4717V11.4717H307.512L307.221 13.1243L309.19 13.4717ZM148.151 18.4316L150.075 18.9775L150.084 18.9472L150.092 18.9167L148.151 18.4316ZM148.154 18.4199L150.095 18.905L146.229 17.8772L148.154 18.4199ZM318.698 18.4316L320.622 18.9775L320.631 18.9472L320.639 18.9167L318.698 18.4316ZM318.701 18.4199L320.641 18.905L316.776 17.8772L318.701 18.4199ZM137.817 12.4873L136.403 13.9015L136.989 14.4873H137.817V12.4873ZM142.521 12.4873L142.521 10.4873H142.521V12.4873ZM143.249 12.502L143.165 14.5002L143.207 14.502H143.249V12.502ZM143.25 12.502V14.502L143.334 10.5037L143.25 12.502ZM142.521 12.4863L142.521 10.4863H142.521V12.4863ZM137.816 12.4863V10.4863H132.988L136.402 13.9005L137.816 12.4863ZM308.364 12.4873L306.95 13.9015L307.536 14.4873H308.364V12.4873ZM313.067 12.4873L313.067 10.4873H313.067V12.4873ZM313.796 12.502L313.712 14.5002L313.754 14.502H313.796V12.502ZM313.797 12.502V14.502L313.881 10.5037L313.797 12.502ZM313.067 12.4863L313.067 10.4863H313.067V12.4863ZM308.363 12.4863V10.4863H303.535L306.949 13.9005L308.363 12.4863ZM40.167 12.3496L40.2122 10.3501L40.2038 10.3499L40.1954 10.3498L40.167 12.3496ZM40.8066 12.377L40.6741 14.3726L40.9415 10.3815L40.8066 12.377ZM40.167 12.3486L40.2121 10.3491L40.2009 10.3489L40.1897 10.3488L40.167 12.3486ZM39.8232 12.3447L39.846 10.3449L39.7948 14.3445L39.8232 12.3447ZM218.073 12.3496L218.118 10.3501L218.11 10.3499L218.102 10.3498L218.073 12.3496ZM218.713 12.377L218.58 14.3726L218.848 10.3815L218.713 12.377ZM218.073 12.3486L218.118 10.3491L218.107 10.3489L218.096 10.3488L218.073 12.3486ZM217.729 12.3447L217.752 10.3449L217.701 14.3445L217.729 12.3447ZM218.539 2.85156V4.85156C223.429 4.85156 226.734 6.10047 228.778 7.60354L229.963 5.99219L231.148 4.38083C228.287 2.27798 224.106 0.851562 218.539 0.851562V2.85156ZM229.963 5.99219L231.933 6.33944L232.361 3.9078L230.392 3.56055L228.422 3.21329L227.993 5.64493L229.963 5.99219ZM230.392 3.56055V5.56055H293.71V3.56055V1.56055H230.392V3.56055ZM293.71 3.56055L291.74 3.21329L289.951 13.3608L291.921 13.708L293.891 14.0553L295.68 3.9078L293.71 3.56055ZM291.921 13.708V11.708H274.258V13.708V15.708H291.921V13.708ZM274.258 13.708L272.288 13.3608L271.485 17.9145L273.455 18.2617L275.425 18.6089L276.227 14.0552L274.258 13.708ZM273.455 18.2617V20.2617H289.103V18.2617V16.2617H273.455V18.2617ZM289.103 18.2617L287.133 17.9143L285.401 27.7307L287.371 28.0781L289.341 28.4255L291.072 18.6091L289.103 18.2617ZM287.371 28.0781V26.0781H271.724V28.0781V30.0781H287.371V28.0781ZM271.724 28.0781L269.754 27.731L268.776 33.2779L270.746 33.625L272.716 33.9721L273.693 28.4252L271.724 28.0781ZM270.746 33.625V35.625H288.842V33.625V31.625H270.746V33.625ZM288.842 33.625L286.872 33.2777L285.396 41.6527L287.365 42L289.335 42.3473L290.811 33.9723L288.842 33.625ZM287.365 42V44H292.319V42V40H287.365V42ZM292.319 42L294.289 42.3473L301.066 3.90781L299.097 3.56055L297.127 3.21328L290.35 41.6527L292.319 42ZM299.097 3.56055V5.56055H315.649V3.56055V1.56055H299.097V3.56055ZM315.649 3.56055L315.649 5.56055C320.701 5.56059 324.061 6.66345 325.983 8.51541L327.371 7.0752L328.759 5.63498C325.743 2.72878 321.121 1.5606 315.649 1.56055L315.649 3.56055ZM327.371 7.0752L325.983 8.51534C327.837 10.3018 328.636 13.076 327.918 17.1498L329.888 17.4971L331.857 17.8443C332.715 12.9774 331.896 8.65852 328.759 5.63505L327.371 7.0752ZM329.888 17.4971L327.918 17.1498C327.39 20.1443 326.204 22.4413 324.662 24.2018L326.167 25.5195L327.672 26.8372C329.707 24.5127 331.206 21.5398 331.857 17.8444L329.888 17.4971ZM326.167 25.5195L324.663 24.2018C323.394 25.6498 321.881 26.7365 320.29 27.5452L321.196 29.3281L322.102 31.1111C324.07 30.1113 326.014 28.73 327.671 26.8373L326.167 25.5195ZM321.196 29.3281L319.46 30.3203L326.7 42.9922L328.437 42L330.173 41.0078L322.933 28.3359L321.196 29.3281ZM328.437 42V44H342V42V40H328.437V42ZM342 42L340.586 40.5858L304.586 76.5858L306 78L307.414 79.4142L343.414 43.4142L342 42ZM306 78V76H2V78V80H306V78ZM2 78H4V42H2H0V78H2ZM2 42V44H22.4473V42V40H2V42ZM22.4473 42L23.4715 40.2822C22.2952 39.5808 21.2983 38.7256 20.4805 37.7214L18.9297 38.9844L17.3789 40.2474C18.5061 41.6314 19.8649 42.7889 21.423 43.7178L22.4473 42ZM18.9297 38.9844L20.4805 37.7214C18.0144 34.6933 17.0318 30.1209 18.1044 24.0377L16.1348 23.6904L14.1651 23.3432C12.9711 30.1154 13.9305 36.0129 17.3789 40.2473L18.9297 38.9844ZM16.1348 23.6904L18.1044 24.0377C19.1852 17.9078 21.9444 13.1138 25.8697 9.84923L24.5908 8.31152L23.312 6.77382C18.5756 10.7129 15.3905 16.394 14.1652 23.3431L16.1348 23.6904ZM24.5908 8.31152L25.8696 9.84926C29.7957 6.58426 34.8853 4.85162 40.6328 4.85156L40.6328 2.85156L40.6328 0.851563C34.068 0.851625 28.0416 2.84052 23.312 6.77379L24.5908 8.31152ZM40.6328 2.85156V4.85156C45.9298 4.85156 49.3665 6.31392 51.3587 7.98179L52.6426 6.44824L53.9264 4.9147C51.0689 2.52249 46.6598 0.851562 40.6328 0.851562V2.85156ZM52.6426 6.44824L51.3507 7.97501L51.4523 8.06095L52.7441 6.53418L54.036 5.00741L53.9345 4.92147L52.6426 6.44824ZM52.7441 6.53418L54.7137 6.88153L55.2382 3.9079L53.2686 3.56055L51.2989 3.2132L50.7745 6.18683L52.7441 6.53418ZM53.2686 3.56055V5.56055H65.1094V3.56055V1.56055H53.2686V3.56055ZM65.1094 3.56055L63.1398 3.21323L60.6056 17.5843L62.5752 17.9316L64.5448 18.279L67.079 3.90787L65.1094 3.56055ZM62.5752 17.9316V19.9316H74.2549V17.9316V15.9316H62.5752V17.9316ZM74.2549 17.9316L76.2245 18.279L78.7587 3.90787L76.7891 3.56055L74.8195 3.21323L72.2853 17.5843L74.2549 17.9316ZM76.7891 3.56055V5.56055H88.5811V3.56055V1.56055H76.7891V3.56055ZM88.5811 3.56055L86.6114 3.21327L80.2735 39.1596L82.2432 39.5068L84.2128 39.8541L90.5507 3.90782L88.5811 3.56055ZM82.2432 39.5068L84.0046 40.4541L102.985 5.16216L101.224 4.21484L99.4622 3.26753L80.4817 38.5595L82.2432 39.5068ZM101.224 4.21484L102.985 5.16147L103.337 4.50718L101.575 3.56055L99.8134 2.61392L99.4618 3.26821L101.224 4.21484ZM101.575 3.56055V5.56055H115.562V3.56055V1.56055H101.575V3.56055ZM115.562 3.56055L113.596 3.92452L113.717 4.57881L115.684 4.21484L117.65 3.85088L117.529 3.19658L115.562 3.56055ZM115.684 4.21484L113.717 4.57899L120.248 39.8514L122.215 39.4873L124.181 39.1232L117.65 3.8507L115.684 4.21484ZM122.215 39.4873L124.184 39.8346L130.519 3.90785L128.55 3.56055L126.58 3.21324L120.245 39.14L122.215 39.4873ZM128.55 3.56055V5.56055H145.103V3.56055V1.56055H128.55V3.56055ZM145.103 3.56055L145.103 5.56055C150.154 5.56059 153.514 6.66345 155.436 8.51541L156.824 7.0752L158.212 5.63498C155.196 2.72878 150.574 1.5606 145.103 1.56055L145.103 3.56055ZM156.824 7.0752L155.436 8.51534C157.29 10.3018 158.089 13.076 157.371 17.1498L159.341 17.4971L161.31 17.8443C162.169 12.9774 161.35 8.65852 158.212 5.63505L156.824 7.0752ZM159.341 17.4971L157.371 17.1498C156.843 20.1443 155.658 22.4413 154.116 24.2018L155.62 25.5195L157.125 26.8372C159.161 24.5127 160.659 21.5398 161.31 17.8444L159.341 17.4971ZM155.62 25.5195L154.116 24.2018C152.847 25.6498 151.334 26.7365 149.743 27.5452L150.649 29.3281L151.556 31.1111C153.523 30.1113 155.467 28.73 157.125 26.8373L155.62 25.5195ZM150.649 29.3281L148.913 30.3203L154.582 40.2422L156.318 39.25L158.055 38.2578L152.386 28.3359L150.649 29.3281ZM156.318 39.25L158.08 40.1973L176.923 5.16217L175.161 4.21484L173.4 3.26751L154.557 38.3027L156.318 39.25ZM175.161 4.21484L176.923 5.16147L177.274 4.50718L175.513 3.56055L173.751 2.61392L173.399 3.26821L175.161 4.21484ZM175.513 3.56055V5.56055H189.5V3.56055V1.56055H175.513V3.56055ZM189.5 3.56055L187.533 3.92452L187.654 4.57881L189.621 4.21484L191.588 3.85088L191.467 3.19658L189.5 3.56055ZM189.621 4.21484L187.655 4.57895L191.731 26.5946L193.697 26.2305L195.664 25.8664L191.588 3.85073L189.621 4.21484ZM193.697 26.2305L195.689 26.4155C195.76 25.6476 195.867 24.8548 196.011 24.0377L194.041 23.6904L192.071 23.3432C191.909 24.2638 191.788 25.1649 191.706 26.0455L193.697 26.2305ZM194.041 23.6904L196.011 24.0377C197.091 17.9078 199.851 13.1138 203.776 9.84923L202.497 8.31152L201.218 6.77382C196.482 10.7129 193.297 16.394 192.071 23.3431L194.041 23.6904ZM202.497 8.31152L203.776 9.84926C207.702 6.58426 212.792 4.85162 218.539 4.85156L218.539 2.85156L218.539 0.851563C211.974 0.851625 205.948 2.84052 201.218 6.77379L202.497 8.31152ZM330 78V76H318V78V80H330V78ZM318 78L319.414 79.4142L355.414 43.4142L354 42L352.586 40.5858L316.586 76.5858L318 78ZM354 42V44H366V42V40H354V42ZM366 42L364.586 40.5858L328.586 76.5858L330 78L331.414 79.4142L367.414 43.4142L366 42ZM354 78V76H342V78V80H354V78ZM342 78L343.414 79.4142L379.414 43.4142L378 42L376.586 40.5858L340.586 76.5858L342 78ZM378 42V44H390V42V40H378V42ZM390 42L388.586 40.5858L352.586 76.5858L354 78L355.414 79.4142L391.414 43.4142L390 42ZM46.7168 40.7178L45.6323 39.0373C44.9997 39.4456 44.3086 39.8373 43.5603 40.206L44.4443 42L45.3284 43.794C46.2076 43.3607 47.0332 42.8939 47.8013 42.3982L46.7168 40.7178ZM44.4443 42V44H46.4912V42V40H44.4443V42ZM46.4912 42L48.461 42.3465L48.6865 41.0643L46.7168 40.7178L44.747 40.3712L44.5215 41.6535L46.4912 42ZM58.332 42V44H70.0117V42V40H58.332V42ZM70.0117 42L71.9813 42.3473L74.3944 28.6627L72.4248 28.3154L70.4552 27.9681L68.0421 41.6527L70.0117 42ZM72.4248 28.3154V26.3154H60.7451V28.3154V30.3154H72.4248V28.3154ZM60.7451 28.3154L58.7755 27.9681L56.3624 41.6527L58.332 42L60.3016 42.3473L62.7147 28.6627L60.7451 28.3154ZM93.6807 42V44H109.662V42V40H93.6807V42ZM109.662 42L111.643 41.7216L110.849 36.0732L108.868 36.3516L106.888 36.6299L107.682 42.2784L109.662 42ZM108.868 36.3516V34.3516H96.4678V36.3516V38.3516H108.868V36.3516ZM96.4678 36.3516L94.6742 35.4666L91.8871 41.115L93.6807 42L95.4742 42.885L98.2613 37.2366L96.4678 36.3516ZM132.612 42V44H132.613V42V40H132.612V42ZM132.613 42L134.583 42.3473L136.578 31.0339L134.608 30.6865L132.639 30.3392L130.644 41.6527L132.613 42ZM134.608 30.6865V28.6865H134.607V30.6865V32.6865H134.608V30.6865ZM134.607 30.6865L132.638 30.3392L130.643 41.6527L132.612 42L134.582 42.3473L136.577 31.0339L134.607 30.6865ZM133.613 42V44H143.729V42V40H133.613V42ZM143.729 42L145.511 41.0915L140.245 30.7624L138.463 31.6709L136.681 32.5794L141.948 42.9085L143.729 42ZM138.463 31.6709V29.6709H135.435V31.6709V33.6709H138.463V31.6709ZM135.435 31.6709L133.465 31.3236L131.644 41.6527L133.613 42L135.583 42.3473L137.404 32.0182L135.435 31.6709ZM167.618 42V44H183.6V42V40H167.618V42ZM183.6 42L185.58 41.7216L184.786 36.0732L182.806 36.3516L180.825 36.6299L181.619 42.2784L183.6 42ZM182.806 36.3516V34.3516H170.405V36.3516V38.3516H182.806V36.3516ZM170.405 36.3516L168.612 35.4666L165.825 41.115L167.618 42L169.412 42.885L172.199 37.2366L170.405 36.3516ZM196.617 42V44H200.354V42V40H196.617V42ZM200.354 42L201.378 40.2822C200.201 39.5808 199.205 38.7256 198.387 37.7214L196.836 38.9844L195.285 40.2474C196.412 41.6314 197.771 42.7889 199.329 43.7178L200.354 42ZM196.836 38.9844L198.387 37.7214C198.062 37.3227 197.764 36.8981 197.493 36.4481L195.78 37.4805L194.067 38.5129C194.432 39.1185 194.838 39.6978 195.285 40.2473L196.836 38.9844ZM195.78 37.4805L193.814 37.8446L194.651 42.3642L196.617 42L198.584 41.6358L197.747 37.1163L195.78 37.4805ZM227.426 16.2705L225.554 15.5648L224.887 17.3333L226.759 18.0391L228.63 18.7448L229.297 16.9763L227.426 16.2705ZM226.759 18.0391L228.262 16.7194L227.164 15.4694L225.661 16.7891L224.158 18.1087L225.256 19.3587L226.759 18.0391ZM225.661 16.7891L227.163 15.4687C224.785 12.7627 221.513 11.3292 217.556 11.3291L217.556 13.3291L217.556 15.3291C220.46 15.3292 222.602 16.3379 224.159 18.1094L225.661 16.7891ZM217.556 13.3291L217.556 11.3291C214.056 11.3292 211.068 12.5232 208.805 14.6094L210.16 16.0801L211.516 17.5508C213.007 16.1764 215.014 15.3292 217.556 15.3291L217.556 13.3291ZM210.16 16.0801L208.805 14.6094C206.54 16.6965 204.988 19.6864 204.352 23.2953L206.321 23.6426L208.291 23.9899C208.801 21.0995 209.996 18.9513 211.516 17.5507L210.16 16.0801ZM206.321 23.6426L204.352 23.2953C203.666 27.1848 204.311 30.4005 206.143 32.6697L207.699 31.4131L209.255 30.1565C208.357 29.0444 207.74 27.1137 208.291 23.9899L206.321 23.6426ZM207.699 31.4131L206.143 32.6698C207.98 34.9433 210.795 36.0029 213.911 36.0029V34.0029V32.0029C211.683 32.0029 210.151 31.2658 209.255 30.1564L207.699 31.4131ZM213.911 34.0029L213.911 36.0029C218.44 36.0027 222.436 34.1088 224.967 31.9425L223.667 30.4229L222.367 28.9032C220.459 30.536 217.361 32.0028 213.911 32.0029L213.911 34.0029ZM223.667 30.4229L224.967 31.9425L226.497 30.6339L225.196 29.1143L223.896 27.5946L222.367 28.9032L223.667 30.4229ZM225.196 29.1143L223.198 29.2015L223.276 30.9906L225.274 30.9033L227.273 30.8161L227.194 29.027L225.196 29.1143ZM225.274 30.9033L223.276 30.9907L223.648 39.4985L225.646 39.4111L227.645 39.3238L227.273 30.8159L225.274 30.9033ZM225.646 39.4111L223.648 39.4987L223.675 40.1003L225.673 40.0127L227.671 39.9251L227.645 39.3236L225.646 39.4111ZM225.673 40.0127L224.545 38.3612L223.987 38.742L225.115 40.3936L226.243 42.0451L226.801 41.6642L225.673 40.0127ZM225.115 40.3936L223.986 38.7426C223.231 39.2594 222.395 39.7546 221.48 40.2063L222.364 42L223.249 43.7937C224.34 43.2556 225.338 42.6641 226.244 42.0445L225.115 40.3936ZM222.364 42V44H234.894V42V40H222.364V42ZM234.894 42L236.863 42.3473L241.851 14.0553L239.882 13.708L237.912 13.3607L232.924 41.6527L234.894 42ZM239.882 13.708V11.708H228.603V13.708V15.708H239.882V13.708ZM228.603 13.708L230.572 14.0559L230.757 13.011L228.787 12.6631L226.818 12.3152L226.633 13.3601L228.603 13.708ZM228.787 12.6631L226.916 11.957L225.555 15.5644L227.426 16.2705L229.297 16.9766L230.658 13.3692L228.787 12.6631ZM246.733 42V44H257.429V42V40H246.733V42ZM257.429 42L259.398 42.3473L264.387 14.0553L262.417 13.708L260.447 13.3607L255.459 41.6527L257.429 42ZM262.417 13.708V11.708H251.722V13.708V15.708H262.417V13.708ZM251.722 13.708L249.752 13.3607L244.764 41.6527L246.733 42L248.703 42.3473L253.691 14.0553L251.722 13.708ZM303.159 42V44H303.16V42V40H303.159V42ZM303.16 42L305.13 42.3473L307.125 31.0339L305.155 30.6865L303.186 30.3392L301.191 41.6527L303.16 42ZM305.155 30.6865V28.6865H305.154V30.6865V32.6865H305.155V30.6865ZM305.154 30.6865L303.185 30.3392L301.19 41.6527L303.159 42L305.129 42.3473L307.124 31.0339L305.154 30.6865ZM304.16 42V44H314.276V42V40H304.16V42ZM314.276 42L316.058 41.0915L310.792 30.7624L309.01 31.6709L307.228 32.5794L312.495 42.9085L314.276 42ZM309.01 31.6709V29.6709H305.981V31.6709V33.6709H309.01V31.6709ZM305.981 31.6709L304.012 31.3236L302.191 41.6527L304.16 42L306.13 42.3473L307.951 32.0182L305.981 31.6709ZM49.5195 16.2705L47.6482 15.5648L46.9812 17.3333L48.8525 18.0391L50.7239 18.7448L51.3909 16.9763L49.5195 16.2705ZM48.8525 18.0391L50.3554 16.7194L49.2577 15.4694L47.7549 16.7891L46.2521 18.1087L47.3497 19.3587L48.8525 18.0391ZM47.7549 16.7891L49.2571 15.4687C46.8787 12.7627 43.6067 11.3292 39.6494 11.3291L39.6494 13.3291L39.6494 15.3291C42.5535 15.3292 44.6956 16.3379 46.2527 18.1094L47.7549 16.7891ZM39.6494 13.3291L39.6494 11.3291C36.1501 11.3292 33.1622 12.5232 30.8985 14.6094L32.2539 16.0801L33.6093 17.5508C35.1006 16.1764 37.1078 15.3292 39.6495 15.3291L39.6494 13.3291ZM32.2539 16.0801L30.8985 14.6094C28.6339 16.6965 27.0818 19.6864 26.4454 23.2953L28.415 23.6426L30.3846 23.9899C30.8943 21.0995 32.0896 18.9513 33.6093 17.5507L32.2539 16.0801ZM28.415 23.6426L26.4454 23.2953C25.7596 27.1848 26.4043 30.4005 28.237 32.6697L29.793 31.4131L31.3489 30.1565C30.4508 29.0444 29.8339 27.1137 30.3847 23.9899L28.415 23.6426ZM29.793 31.4131L28.2371 32.6698C30.0734 34.9433 32.8892 36.0029 36.0049 36.0029V34.0029V32.0029C33.7771 32.0029 32.2449 31.2658 31.3488 30.1564L29.793 31.4131ZM36.0049 34.0029L36.005 36.0029C40.5339 36.0027 44.5293 34.1088 47.061 31.9425L45.7607 30.4229L44.4605 28.9032C42.5523 30.536 39.4551 32.0028 36.0048 32.0029L36.0049 34.0029ZM45.7607 30.4229L47.061 31.9425L48.5903 30.6339L47.29 29.1143L45.9897 27.5946L44.4604 28.9032L45.7607 30.4229ZM47.29 29.1143L45.2919 29.2015L45.3701 30.9906L47.3682 30.9033L49.3663 30.8161L49.2881 29.027L47.29 29.1143ZM47.3682 30.9033L45.3701 30.9909L45.5849 35.8942L47.583 35.8066L49.5811 35.7191L49.3662 30.8158L47.3682 30.9033ZM47.583 35.8066L49.5526 36.1539L54.3202 9.11388L52.3506 8.7666L50.381 8.41933L45.6134 35.4594L47.583 35.8066ZM52.3506 8.7666L50.4793 8.06062L47.6483 15.5645L49.5195 16.2705L51.3908 16.9765L54.2218 9.47258L52.3506 8.7666ZM101.335 26.4395V28.4395H107.5V26.4395V24.4395H101.335V26.4395ZM107.5 26.4395L109.481 26.1676L108.14 16.3883L106.158 16.6602L104.177 16.932L105.519 26.7113L107.5 26.4395ZM106.158 16.6602L104.365 15.7755L99.5413 25.5548L101.335 26.4395L103.129 27.3241L107.952 17.5448L106.158 16.6602ZM175.272 26.4395V28.4395H181.438V26.4395V24.4395H175.272V26.4395ZM181.438 26.4395L183.419 26.1676L182.077 16.3883L180.096 16.6602L178.114 16.932L179.456 26.7113L181.438 26.4395ZM180.096 16.6602L178.302 15.7755L173.479 25.5548L175.272 26.4395L177.066 27.3241L181.889 17.5448L180.096 16.6602ZM137.132 22.0439V24.0439H141.508V22.0439V20.0439H137.132V22.0439ZM141.508 22.0439L141.508 24.0439C142.848 24.0439 144.563 23.7857 146.061 22.9045L145.047 21.1807L144.033 19.4569C143.352 19.8575 142.413 20.0439 141.508 20.0439L141.508 22.0439ZM145.047 21.1807L146.061 22.9043C147.567 22.0184 148.86 20.4931 149.302 17.9871L147.332 17.6396L145.362 17.2922C145.239 17.9915 145.024 18.446 144.809 18.7518C144.593 19.0577 144.332 19.2806 144.032 19.457L145.047 21.1807ZM147.332 17.6396L149.302 17.9869C149.488 16.9323 149.488 15.932 149.211 15.0184C148.922 14.0666 148.372 13.3417 147.687 12.8167L146.471 14.4043L145.254 15.9919C145.323 16.0448 145.354 16.0843 145.383 16.179C145.423 16.312 145.477 16.6404 145.362 17.2924L147.332 17.6396ZM146.471 14.4043L147.687 12.8164C146.318 11.768 144.366 11.4717 142.347 11.4717L142.347 13.4717L142.347 15.4717C144.174 15.4717 144.982 15.7833 145.255 15.9922L146.471 14.4043ZM142.347 13.4717V11.4717H138.644V13.4717V15.4717H142.347V13.4717ZM138.644 13.4717L136.674 13.1243L135.162 21.6966L137.132 22.0439L139.101 22.3913L140.613 13.819L138.644 13.4717ZM307.679 22.0439V24.0439H312.055V22.0439V20.0439H307.679V22.0439ZM312.055 22.0439L312.055 24.0439C313.395 24.0439 315.11 23.7857 316.608 22.9045L315.594 21.1807L314.58 19.4569C313.899 19.8575 312.96 20.0439 312.055 20.0439L312.055 22.0439ZM315.594 21.1807L316.608 22.9043C318.114 22.0184 319.406 20.4931 319.848 17.9871L317.879 17.6396L315.909 17.2922C315.786 17.9915 315.571 18.446 315.355 18.7518C315.14 19.0577 314.879 19.2806 314.579 19.457L315.594 21.1807ZM317.879 17.6396L319.849 17.9869C320.034 16.9323 320.035 15.932 319.758 15.0184C319.469 14.0666 318.919 13.3417 318.234 12.8167L317.018 14.4043L315.801 15.9919C315.87 16.0448 315.901 16.0843 315.93 16.179C315.97 16.312 316.024 16.6404 315.909 17.2924L317.879 17.6396ZM317.018 14.4043L318.234 12.8164C316.865 11.768 314.913 11.4717 312.894 11.4717L312.894 13.4717L312.894 15.4717C314.721 15.4717 315.529 15.7833 315.802 15.9922L317.018 14.4043ZM312.894 13.4717V11.4717H309.19V13.4717V15.4717H312.894V13.4717ZM309.19 13.4717L307.221 13.1243L305.709 21.6966L307.679 22.0439L309.648 22.3913L311.16 13.819L309.19 13.4717ZM148.133 18.4893L150.052 19.0508C150.046 19.0739 150.04 19.0913 150.037 19.0993C150.035 19.1057 150.033 19.1114 150.036 19.103C150.038 19.0984 150.043 19.0819 150.05 19.0626C150.056 19.0423 150.065 19.0128 150.075 18.9775L148.151 18.4316L146.227 17.8858C146.235 17.8602 146.241 17.8404 146.244 17.8297C146.247 17.82 146.25 17.813 146.248 17.818C146.248 17.819 146.246 17.824 146.245 17.8287C146.243 17.8339 146.24 17.8415 146.237 17.8504C146.232 17.868 146.223 17.895 146.213 17.9277L148.133 18.4893ZM148.151 18.4316L150.092 18.9167L150.095 18.905L148.154 18.4199L146.214 17.9349L146.211 17.9466L148.151 18.4316ZM148.154 18.4199L146.229 17.8772C146.234 17.8619 146.237 17.8505 146.239 17.8452C146.24 17.8404 146.241 17.8378 146.239 17.8429C146.239 17.8452 146.235 17.858 146.231 17.8703C146.226 17.8839 146.22 17.9039 146.213 17.9277L148.133 18.4893L150.052 19.0508C150.049 19.063 150.046 19.0715 150.045 19.0736C150.045 19.0744 150.045 19.0756 150.048 19.0665C150.05 19.06 150.054 19.0459 150.059 19.0295C150.065 19.0126 150.072 18.9896 150.079 18.9626L148.154 18.4199ZM318.68 18.4893L320.599 19.0508C320.592 19.0739 320.587 19.0913 320.584 19.0993C320.582 19.1057 320.58 19.1114 320.583 19.103C320.585 19.0984 320.59 19.0819 320.596 19.0626C320.603 19.0423 320.612 19.0128 320.622 18.9775L318.698 18.4316L316.774 17.8858C316.781 17.8602 316.788 17.8404 316.791 17.8297C316.794 17.82 316.797 17.813 316.795 17.818C316.795 17.819 316.793 17.824 316.791 17.8287C316.79 17.8339 316.787 17.8415 316.784 17.8504C316.778 17.868 316.77 17.895 316.76 17.9277L318.68 18.4893ZM318.698 18.4316L320.639 18.9167L320.641 18.905L318.701 18.4199L316.761 17.9349L316.758 17.9466L318.698 18.4316ZM318.701 18.4199L316.776 17.8772C316.781 17.8619 316.784 17.8505 316.786 17.8452C316.787 17.8404 316.788 17.8378 316.786 17.8429C316.786 17.8452 316.781 17.858 316.778 17.8703C316.773 17.8839 316.767 17.9039 316.76 17.9277L318.68 18.4893L320.599 19.0508C320.596 19.063 320.593 19.0715 320.592 19.0736C320.592 19.0744 320.592 19.0756 320.595 19.0665C320.597 19.06 320.601 19.0459 320.606 19.0295C320.612 19.0126 320.619 18.9896 320.626 18.9626L318.701 18.4199ZM137.817 12.4873V14.4873H142.521V12.4873V10.4873H137.817V12.4873ZM142.521 12.4873L142.521 14.4873C142.744 14.4873 142.959 14.4915 143.165 14.5002L143.249 12.502L143.333 10.5037C143.065 10.4925 142.794 10.4873 142.521 10.4873L142.521 12.4873ZM143.249 12.502V14.502H143.25V12.502V10.502H143.249V12.502ZM143.25 12.502L143.334 10.5037C143.071 10.4927 142.8 10.4863 142.521 10.4863L142.521 12.4863L142.521 14.4863C142.739 14.4863 142.954 14.4913 143.166 14.5002L143.25 12.502ZM142.521 12.4863V10.4863H137.816V12.4863V14.4863H142.521V12.4863ZM137.816 12.4863L136.402 13.9005L136.403 13.9015L137.817 12.4873L139.232 11.0731L139.231 11.0721L137.816 12.4863ZM308.364 12.4873V14.4873H313.067V12.4873V10.4873H308.364V12.4873ZM313.067 12.4873L313.067 14.4873C313.291 14.4873 313.506 14.4915 313.712 14.5002L313.796 12.502L313.88 10.5037C313.612 10.4925 313.341 10.4873 313.067 10.4873L313.067 12.4873ZM313.796 12.502V14.502H313.797V12.502V10.502H313.796V12.502ZM313.797 12.502L313.881 10.5037C313.618 10.4927 313.347 10.4863 313.067 10.4863L313.067 12.4863L313.067 14.4863C313.286 14.4863 313.501 14.4913 313.713 14.5002L313.797 12.502ZM313.067 12.4863V10.4863H308.363V12.4863V14.4863H313.067V12.4863ZM308.363 12.4863L306.949 13.9005L306.95 13.9015L308.364 12.4873L309.778 11.0731L309.777 11.0721L308.363 12.4863ZM40.167 12.3496L40.1218 14.3491C40.3155 14.3535 40.4989 14.3609 40.6741 14.3726L40.8066 12.377L40.9392 10.3814C40.6933 10.365 40.4501 10.3555 40.2122 10.3501L40.167 12.3496ZM40.8066 12.377L40.9415 10.3815C40.6984 10.3651 40.4551 10.3546 40.2121 10.3491L40.167 12.3486L40.1218 14.3481C40.3107 14.3524 40.4938 14.3604 40.6718 14.3724L40.8066 12.377ZM40.167 12.3486L40.1897 10.3488L39.846 10.3449L39.8232 12.3447L39.8005 14.3446L40.1443 14.3485L40.167 12.3486ZM39.8232 12.3447L39.7948 14.3445L40.1386 14.3494L40.167 12.3496L40.1954 10.3498L39.8516 10.3449L39.8232 12.3447ZM218.073 12.3496L218.028 14.3491C218.222 14.3535 218.405 14.3609 218.58 14.3726L218.713 12.377L218.845 10.3814C218.6 10.365 218.356 10.3555 218.118 10.3501L218.073 12.3496ZM218.713 12.377L218.848 10.3815C218.605 10.3651 218.361 10.3546 218.118 10.3491L218.073 12.3486L218.028 14.3481C218.217 14.3524 218.4 14.3604 218.578 14.3724L218.713 12.377ZM218.073 12.3486L218.096 10.3488L217.752 10.3449L217.729 12.3447L217.707 14.3446L218.051 14.3485L218.073 12.3486ZM217.729 12.3447L217.701 14.3445L218.045 14.3494L218.073 12.3496L218.102 10.3498L217.758 10.3449L217.729 12.3447Z" fill="#FFFFFF" mask="url(#path-1-outside-1_0_1)"/>
<path d="M9 71H283V70H9V71Z" fill="#FFFFFF"/>
<path d="M283 71H297L289 63V70H283V71Z" fill="#FFFFFF"/>
</svg>
